<?xml version="1.0" standalone="no"?>
<!DOCTYPE svg PUBLIC "-//W3C//DTD SVG 20010904//EN"
 "http://www.w3.org/TR/2001/REC-SVG-20010904/DTD/svg10.dtd">
<svg version="1.0" xmlns="http://www.w3.org/2000/svg"
 width="1366.000000pt" height="768.000000pt" viewBox="0 0 1366.000000 768.000000"
 preserveAspectRatio="xMidYMid meet">

<g transform="translate(0.000000,768.000000) scale(0.100000,-0.100000)"
fill="#000000" stroke="none">
<path d="M1724 7663 c19 -58 45 -118 53 -120 5 -2 26 3 46 12 29 12 37 21 37
40 0 14 3 25 8 25 4 0 17 3 28 6 17 4 24 0 32 -23 5 -15 13 -36 17 -45 9 -22
-28 -43 -52 -29 -20 10 -93 -21 -93 -40 0 -26 54 -129 67 -129 24 0 73 30 73
45 0 14 29 35 50 35 6 0 18 -17 26 -37 17 -41 88 -197 192 -418 36 -77 109
-239 162 -360 69 -157 102 -219 112 -217 18 3 75 -125 83 -190 15 -112 14
-108 45 -108 33 0 108 26 129 46 22 20 4 63 -47 114 -26 26 -60 74 -76 108
-26 54 -28 65 -17 85 11 21 8 34 -32 114 -51 100 -147 325 -147 342 0 6 15 11
33 11 71 0 181 77 206 143 33 87 -1 253 -93 458 l-54 119 26 16 c27 15 27 15
-18 11 -27 -3 -108 -33 -205 -76 -88 -40 -165 -74 -171 -77 -10 -5 -28 28 -36
64 -2 8 29 26 80 46 46 19 86 37 89 40 16 16 -60 3 -115 -19 -34 -14 -66 -25
-71 -25 -5 0 -12 11 -15 25 -4 14 -13 25 -22 25 -19 0 -16 -11 48 -154 27 -61
63 -145 80 -186 45 -114 88 -189 124 -217 125 -95 256 -3 223 158 -5 30 -40
114 -76 187 -36 73 -64 134 -62 136 9 6 92 37 94 34 9 -9 115 -251 131 -298
13 -39 19 -84 19 -152 0 -91 -2 -99 -30 -139 -39 -54 -93 -82 -171 -87 -75 -5
-121 14 -179 74 -49 51 -159 255 -256 477 -57 129 -78 167 -92 167 -10 0 -15
-5 -12 -10 11 -18 -27 -24 -40 -7 -7 10 -21 17 -33 17 -20 0 -20 -1 -4 -41 15
-39 15 -42 -3 -55 -22 -17 -27 -13 -48 43 -12 31 -13 43 -4 46 7 3 -1 6 -16 6
-23 1 -27 -3 -23 -16z m704 -200 c85 -178 96 -225 66 -289 -44 -92 -157 -77
-219 29 -29 50 -128 288 -122 294 6 5 201 93 208 93 3 0 33 -57 67 -127z
m-454 31 c8 -20 -1 -34 -20 -34 -20 0 -30 30 -13 41 20 12 26 11 33 -7z m-76
-39 c12 -24 18 -46 14 -48 -36 -19 -44 -16 -64 29 -16 38 -18 48 -7 55 25 16
35 9 57 -36z m437 -510 c48 -22 51 -26 84 -106 19 -46 62 -146 97 -222 l62
-138 -40 -20 c-22 -11 -44 -19 -49 -17 -5 2 -48 91 -95 198 -47 107 -105 237
-129 288 l-44 93 32 -27 c18 -15 55 -37 82 -49z m289 -684 c-20 -22 -39 -7
-53 40 -7 24 -22 61 -32 81 -18 35 -18 38 -2 47 15 8 24 -2 59 -72 34 -68 39
-84 28 -96z m96 -75 c0 -15 -68 -46 -100 -46 -16 0 -20 7 -20 35 0 19 -1 38
-2 43 -2 4 7 8 19 10 12 2 27 10 34 19 12 13 17 11 41 -16 15 -17 28 -38 28
-45z"/>
<path d="M2376 6827 c3 -10 9 -15 12 -12 3 3 0 11 -7 18 -10 9 -11 8 -5 -6z"/>
<path d="M2401 6775 c0 -5 6 -21 14 -35 8 -14 14 -20 14 -15 0 6 -6 21 -14 35
-8 14 -14 21 -14 15z"/>
<path d="M4089 7438 c-39 -404 -30 -498 60 -588 96 -96 239 -122 746 -135 127
-4 433 -15 680 -26 248 -11 504 -23 570 -25 106 -5 131 -3 218 20 125 32 177
59 232 117 80 86 96 183 109 674 9 323 -10 217 -28 -162 -13 -268 -20 -345
-36 -395 -23 -74 -61 -124 -121 -157 l-44 -25 26 35 c65 86 76 139 99 494 11
165 22 326 25 358 5 46 3 57 -9 57 -18 0 -20 -19 -46 -405 -11 -165 -25 -322
-31 -350 -23 -101 -67 -157 -154 -197 -47 -22 -62 -23 -265 -23 -118 0 -397 8
-620 18 -223 9 -549 22 -725 27 -198 6 -348 16 -392 25 -175 34 -255 106 -282
250 -15 79 -14 132 5 272 8 65 21 178 28 251 11 121 11 132 -4 132 -14 0 -20
-34 -41 -242z"/>
<path d="M4280 7588 c0 -51 -7 -156 -15 -233 -8 -77 -15 -172 -15 -212 0 -65
2 -73 26 -92 14 -11 40 -22 58 -25 231 -32 248 -30 265 31 12 44 26 174 42
388 5 83 13 169 16 193 4 33 2 42 -9 42 -12 0 -17 -37 -27 -202 -21 -365 -31
-434 -66 -450 -25 -11 -231 14 -266 32 -26 15 -33 70 -20 168 31 239 41 452
21 452 -6 0 -10 -38 -10 -92z"/>
<path d="M4402 7655 c0 -16 2 -22 5 -12 2 9 2 23 0 30 -3 6 -5 -1 -5 -18z"/>
<path d="M4512 7655 c0 -16 2 -22 5 -12 2 9 2 23 0 30 -3 6 -5 -1 -5 -18z"/>
<path d="M4986 7628 c-3 -29 -6 -87 -6 -129 0 -93 -14 -86 200 -95 l156 -7 11
139 c11 128 10 155 -1 143 -3 -2 -10 -60 -16 -129 -6 -69 -13 -127 -15 -129
-6 -6 -107 -4 -218 4 l-99 7 4 124 c3 128 -4 164 -16 72z"/>
<path d="M5446 7588 c-3 -50 -6 -117 -6 -149 l0 -57 88 -8 c48 -5 128 -9 177
-9 l90 0 12 125 c14 156 15 193 4 186 -4 -3 -11 -45 -15 -93 -4 -49 -9 -115
-13 -147 l-6 -59 -111 6 c-61 4 -133 9 -160 13 l-49 7 5 139 c6 154 -5 188
-16 46z"/>
<path d="M5940 7588 c0 -51 -3 -123 -6 -159 l-7 -66 34 -7 c18 -3 99 -9 180
-13 l147 -6 7 79 c3 43 10 117 15 164 4 47 6 88 4 92 -3 5 -42 7 -87 7 l-82
-2 72 -7 c40 -3 75 -8 77 -11 4 -4 -11 -203 -20 -268 l-5 -34 -137 6 c-203 10
-184 -8 -176 168 5 110 4 149 -4 149 -8 0 -12 -29 -12 -92z"/>
<path d="M7775 7669 c-2 -8 -41 -174 -85 -369 -64 -281 -79 -359 -70 -375 16
-30 -44 -294 -72 -314 -17 -11 -19 -21 -15 -54 8 -62 -11 -148 -39 -172 -12
-11 -27 -33 -33 -48 -10 -27 -9 -29 32 -47 57 -26 181 -55 201 -47 14 6 16 20
10 114 -6 102 -5 109 15 127 22 20 27 47 12 75 -7 11 0 63 20 161 16 79 29
148 29 152 0 5 11 14 25 20 14 6 28 21 30 32 24 110 92 416 125 559 43 193 44
197 32 197 -5 0 -21 -53 -36 -117 -44 -192 -136 -620 -136 -636 0 -33 -128
-31 -180 2 -17 11 -20 -7 85 455 36 159 63 291 60 294 -2 3 -7 -1 -10 -9z m-8
-783 c1 0 -15 -79 -35 -173 l-36 -173 -27 0 c-16 0 -44 7 -62 16 l-35 17 15
61 c8 33 23 103 34 154 10 52 21 97 24 101 3 6 114 3 122 -3z m-87 -366 c54
-6 54 -6 26 -18 -34 -15 -82 -7 -125 19 -43 26 -39 41 7 22 20 -9 62 -20 92
-23z m-55 -33 c22 -5 46 -11 52 -13 10 -2 11 -23 7 -81 -4 -43 -8 -80 -10 -82
-4 -4 -85 16 -127 31 -18 7 -26 16 -23 25 3 7 11 43 18 79 9 53 15 63 27 58 9
-4 34 -11 56 -17z m-55 -170 c25 -8 62 -18 83 -22 45 -9 51 -35 8 -35 -31 0
-191 47 -191 56 0 3 5 14 11 25 9 18 12 19 27 6 9 -8 37 -22 62 -30z"/>
<path d="M7720 6805 c-7 -33 -15 -65 -17 -72 -3 -7 -1 -13 5 -13 11 0 36 112
30 132 -3 7 -11 -14 -18 -47z"/>
<path d="M7650 6365 c0 -15 4 -24 10 -20 6 3 10 12 10 20 0 8 -4 17 -10 20 -6
4 -10 -5 -10 -20z"/>
<path d="M8770 7623 c22 -32 49 -68 59 -80 l19 -23 73 34 c41 18 86 36 100 39
23 6 25 4 21 -22 -8 -56 56 -90 105 -56 28 19 33 46 17 83 -19 46 -46 47 -159
7 l-100 -34 -42 47 c-24 26 -43 50 -43 55 0 10 -20 9 -20 -2 0 -5 20 -32 45
-59 43 -48 45 -51 26 -61 -17 -10 -26 -3 -72 59 -62 84 -88 95 -29 13z m372
-20 c22 -20 23 -41 1 -65 -32 -36 -83 -17 -83 32 0 48 45 67 82 33z"/>
<path d="M10541 7603 c76 -96 139 -190 214 -318 190 -327 326 -451 560 -511
87 -22 313 -26 395 -6 169 41 353 127 502 234 225 163 491 441 595 623 28 49
30 55 13 55 -11 0 -29 -19 -48 -52 -52 -93 -121 -178 -256 -316 -263 -269
-496 -426 -739 -496 -294 -85 -586 -25 -773 160 -69 69 -132 158 -224 319
-122 212 -248 385 -281 385 -15 0 -7 -15 42 -77z"/>
<path d="M10977 7649 c57 -88 191 -200 267 -220 64 -17 172 -7 248 25 l68 27
44 -35 c23 -20 47 -36 53 -36 18 0 239 257 229 267 -7 8 -5 10 -76 -77 -71
-88 -147 -170 -156 -170 -4 0 -27 16 -51 36 l-45 37 44 46 c109 116 121 131
108 130 -8 0 -48 -39 -89 -85 -73 -84 -74 -85 -94 -66 -16 17 -17 23 -7 43 12
22 13 22 26 4 8 -10 17 -15 21 -12 3 4 -1 13 -11 20 -15 11 -14 16 19 54 l36
42 -30 -2 c-19 -1 -26 -6 -21 -12 5 -6 -7 -28 -30 -55 -47 -53 -49 -65 -14
-92 14 -11 22 -24 17 -28 -18 -17 -156 -60 -192 -60 -100 0 -218 69 -313 184
-57 68 -83 87 -51 35z"/>
<path d="M11480 7635 c13 -14 26 -25 28 -25 3 0 -5 11 -18 25 -13 14 -26 25
-28 25 -3 0 5 -11 18 -25z"/>
<path d="M11590 7635 c0 -16 16 -20 24 -6 3 5 -1 11 -9 15 -9 3 -15 0 -15 -9z"/>
<path d="M4393 7560 c0 -30 2 -43 4 -27 2 15 2 39 0 55 -2 15 -4 2 -4 -28z"/>
<path d="M7810 7569 c-9 -15 -8 -24 1 -35 16 -19 45 -18 53 2 17 45 -32 75
-54 33z m38 -16 c-4 -22 -22 -20 -26 1 -2 10 3 16 13 16 10 0 15 -7 13 -17z"/>
<path d="M11135 7550 c4 -6 11 -8 16 -5 14 9 11 15 -7 15 -8 0 -12 -5 -9 -10z"/>
<path d="M1027 7544 c-3 -3 19 -37 49 -76 30 -38 54 -74 54 -79 0 -5 -11 -9
-24 -9 -34 0 -56 -25 -56 -64 0 -41 26 -66 68 -66 35 0 62 30 62 70 0 14 -20
55 -45 92 -25 37 -45 69 -45 72 0 2 13 -1 28 -6 39 -15 82 -3 82 22 0 11 -4
20 -10 20 -5 0 -7 -7 -4 -15 13 -34 -89 -10 -137 31 -9 8 -18 11 -22 8z m123
-194 c26 -26 25 -36 -5 -65 -21 -22 -27 -24 -50 -13 -36 16 -44 56 -15 80 29
23 45 23 70 -2z"/>
<path d="M11420 7480 c0 -5 5 -10 10 -10 6 0 10 5 10 10 0 6 -4 10 -10 10 -5
0 -10 -4 -10 -10z"/>
<path d="M30 7472 c0 -7 12 -14 28 -18 51 -11 80 -25 112 -57 52 -51 73 -102
78 -193 8 -155 -36 -232 -165 -286 -43 -18 -53 -26 -51 -43 4 -25 39 -30 113
-15 189 39 285 252 200 445 -26 60 -77 107 -153 141 -64 28 -162 44 -162 26z
m261 -121 c39 -48 59 -112 59 -192 0 -112 -43 -197 -124 -244 -46 -27 -117
-45 -145 -38 -15 4 -6 12 37 35 117 60 157 131 156 273 -1 87 -21 148 -71 214
l-26 34 43 -24 c23 -13 55 -39 71 -58z"/>
<path d="M4383 7435 c0 -27 2 -38 4 -22 2 15 2 37 0 50 -2 12 -4 0 -4 -28z"/>
<path d="M30 7402 c0 -4 15 -14 34 -20 45 -17 92 -71 107 -124 16 -61 6 -159
-20 -202 -14 -22 -40 -43 -71 -58 -27 -13 -49 -26 -50 -30 -1 -34 116 44 141
94 59 117 17 278 -85 328 -46 22 -56 24 -56 12z"/>
<path d="M4373 7325 c0 -22 2 -30 4 -17 2 12 2 30 0 40 -3 9 -5 -1 -4 -23z"/>
<path d="M4965 7318 c-6 -18 -37 -330 -33 -333 8 -7 218 -25 292 -25 l83 0 13
165 c7 91 11 167 9 169 -4 4 -303 36 -338 36 -12 0 -24 -6 -26 -12z m204 -23
c80 -9 145 -17 146 -18 4 -5 -26 -291 -30 -296 -12 -11 -319 10 -332 23 -2 2
3 67 11 144 9 78 16 146 16 152 0 13 18 13 189 -5z"/>
<path d="M7744 7306 c-11 -29 0 -51 26 -51 21 0 25 5 25 30 0 24 -5 31 -23 33
-13 2 -24 -3 -28 -12z m39 -27 c-17 -17 -37 -1 -22 17 8 10 15 12 23 4 7 -7 7
-13 -1 -21z"/>
<path d="M5407 7124 c-11 -116 -13 -170 -6 -175 14 -8 297 -32 334 -28 l30 4
14 163 c8 89 12 165 8 168 -5 6 -126 19 -278 30 l-85 7 -17 -169z m293 127
l75 -6 -3 -30 c-1 -16 -7 -79 -12 -140 -5 -60 -10 -116 -10 -122 0 -9 -20 -13
-65 -13 -61 0 -266 19 -273 25 -2 2 4 67 12 145 9 79 16 147 16 153 0 6 31 7
93 2 50 -4 126 -10 167 -14z"/>
<path d="M5919 7268 c-7 -28 -35 -335 -30 -340 9 -10 190 -28 286 -28 74 0 85
2 85 18 0 9 7 82 15 162 7 80 11 148 7 152 -9 8 -361 43 -363 36z m200 -33
c80 -9 146 -17 147 -18 3 -3 -17 -246 -22 -274 -4 -22 -9 -23 -87 -23 -68 0
-248 16 -253 23 -1 1 6 71 14 155 15 142 17 152 36 152 12 0 86 -7 165 -15z"/>
<path d="M30 7240 c0 -5 5 -12 11 -16 8 -4 8 -9 0 -17 -20 -20 -11 -28 14 -11
31 20 31 28 0 42 -14 6 -25 7 -25 2z"/>
<path d="M58 7174 c-16 -8 -28 -20 -28 -25 0 -7 11 -4 26 6 17 11 30 13 36 7
6 -6 -4 -17 -26 -30 -20 -12 -36 -26 -36 -31 0 -11 66 24 76 40 6 11 -4 49
-14 49 -4 -1 -19 -8 -34 -16z"/>
<path d="M2242 7121 c13 -19 35 -41 49 -49 l24 -14 -23 19 c-13 10 -34 32 -49
48 l-25 30 24 -34z"/>
<path d="M8900 7023 c0 -7 3 -13 8 -13 4 0 43 -44 87 -96 165 -197 258 -306
345 -400 50 -54 90 -100 89 -103 0 -4 -150 -133 -332 -288 -183 -155 -399
-339 -482 -410 -156 -132 -358 -323 -351 -330 2 -3 -4 -30 -15 -61 -11 -32
-31 -112 -44 -179 l-25 -121 117 -114 c471 -457 868 -833 882 -836 9 -1 63 39
121 90 58 51 218 192 355 314 138 121 410 359 605 529 195 169 358 313 362
319 7 12 47 243 50 293 1 17 -4 43 -11 56 -7 14 -77 84 -155 157 -77 73 -292
281 -478 462 -185 180 -340 328 -345 328 -4 0 -57 -43 -118 -95 -60 -52 -113
-95 -116 -95 -10 0 -326 347 -501 550 -26 30 -48 49 -48 43z m895 -544 c176
-178 602 -585 702 -672 57 -48 114 -107 128 -131 l25 -42 -22 -132 c-12 -73
-25 -132 -30 -132 -6 0 -668 630 -890 849 l-58 56 22 148 c12 81 24 147 28
147 3 0 46 -41 95 -91z m-154 -73 c-10 -70 -21 -129 -23 -130 -39 -29 -1001
-872 -1300 -1140 -109 -98 -111 -97 -83 24 41 176 56 213 109 269 64 67 274
252 611 536 143 121 313 266 379 323 l119 103 23 -22 c14 -14 22 -30 19 -39
-3 -10 2 -23 12 -31 15 -11 16 -11 6 1 -18 19 -16 33 2 26 24 -9 17 8 -15 39
-16 16 -30 32 -30 35 0 4 42 42 93 84 60 51 93 73 95 64 1 -8 -6 -72 -17 -142z
m320 -468 c407 -391 631 -610 627 -612 -14 -10 -777 -676 -1051 -919 -192
-169 -352 -307 -356 -305 -12 5 -951 911 -950 917 1 8 122 115 739 654 283
248 547 479 585 513 39 35 73 63 76 64 3 0 152 -140 330 -312z"/>
<path d="M10522 5618 c6 -18 28 -21 28 -4 0 9 -7 16 -16 16 -9 0 -14 -5 -12
-12z"/>
<path d="M9547 6329 c4 -13 8 -18 11 -10 2 7 -1 18 -6 23 -8 8 -9 4 -5 -13z"/>
<path d="M9584 6029 c-52 -15 -74 -48 -81 -122 -6 -65 -5 -67 29 -101 85 -85
187 -40 218 99 10 46 -16 86 -74 113 -50 24 -48 24 -92 11z m80 -39 c23 -11
47 -30 55 -42 11 -20 9 -19 -16 5 -39 36 -90 44 -134 22 -32 -17 -33 -17 -19
0 14 16 44 33 64 34 5 1 28 -8 50 -19z m17 -59 c17 -18 29 -40 29 -56 0 -37
-50 -85 -88 -85 -41 0 -92 44 -92 79 0 79 95 118 151 62z"/>
<path d="M9322 5800 c-48 -22 -62 -49 -65 -125 -2 -62 20 -101 70 -122 77 -32
149 17 173 117 11 47 11 54 -7 78 -44 59 -111 79 -171 52z m97 -29 c41 -21 67
-48 57 -58 -3 -3 -6 -1 -6 5 0 17 -60 52 -90 52 -14 0 -37 -7 -52 -14 -16 -8
-28 -11 -28 -6 0 11 49 39 68 40 7 0 30 -9 51 -19z m16 -56 c50 -49 15 -145
-52 -145 -58 0 -112 56 -98 101 10 30 64 69 96 69 18 0 39 -10 54 -25z"/>
<path d="M9825 5689 c-38 -33 -79 -69 -90 -81 -11 -12 22 14 73 56 78 66 102
88 90 85 -2 0 -34 -27 -73 -60z"/>
<path d="M9935 5619 c-38 -33 -79 -69 -90 -81 -11 -12 22 14 73 56 78 66 102
88 90 85 -2 0 -34 -27 -73 -60z"/>
<path d="M10050 5559 l-55 -51 58 47 c50 42 64 55 55 55 -2 0 -28 -23 -58 -51z"/>
<path d="M8879 5433 c-165 -132 -306 -251 -476 -398 l-35 -31 81 -82 c51 -51
87 -80 94 -75 18 11 341 277 427 351 110 96 260 245 260 259 0 14 -130 133
-146 133 -6 0 -98 -70 -205 -157z m267 75 l55 -52 -58 -59 c-90 -91 -588 -517
-605 -517 -2 0 -32 27 -67 61 l-65 61 40 34 c48 42 369 310 519 432 61 50 114
91 118 91 5 1 33 -22 63 -51z"/>
<path d="M9679 5563 l-24 -28 28 24 c15 14 27 26 27 28 0 8 -8 1 -31 -24z"/>
<path d="M9619 5513 l-24 -28 28 24 c15 14 27 26 27 28 0 8 -8 1 -31 -24z"/>
<path d="M10149 5503 l-24 -28 28 24 c15 14 27 26 27 28 0 8 -8 1 -31 -24z"/>
<path d="M9789 5493 l-24 -28 28 24 c15 14 27 26 27 28 0 8 -8 1 -31 -24z"/>
<path d="M9959 5483 l-24 -28 28 24 c15 14 27 26 27 28 0 8 -8 1 -31 -24z"/>
<path d="M9515 5429 c-38 -33 -79 -69 -90 -81 -11 -12 22 14 73 56 78 66 102
88 90 85 -2 0 -34 -27 -73 -60z"/>
<path d="M10089 5453 l-24 -28 28 24 c15 14 27 26 27 28 0 8 -8 1 -31 -24z"/>
<path d="M9729 5443 l-24 -28 28 24 c15 14 27 26 27 28 0 8 -8 1 -31 -24z"/>
<path d="M9899 5433 l-24 -28 28 24 c15 14 27 26 27 28 0 8 -8 1 -31 -24z"/>
<path d="M10254 5428 l-19 -23 23 19 c21 18 27 26 19 26 -2 0 -12 -10 -23 -22z"/>
<path d="M10029 5403 l-24 -28 28 24 c15 14 27 26 27 28 0 8 -8 1 -31 -24z"/>
<path d="M9625 5359 c-38 -33 -79 -69 -90 -81 -11 -12 22 14 73 56 78 66 102
88 90 85 -2 0 -34 -27 -73 -60z"/>
<path d="M9795 5349 c-38 -33 -79 -69 -90 -81 -11 -12 22 14 73 56 78 66 102
88 90 85 -2 0 -34 -27 -73 -60z"/>
<path d="M10199 5383 l-24 -28 28 24 c15 14 27 26 27 28 0 8 -8 1 -31 -24z"/>
<path d="M9925 5319 c-38 -33 -79 -69 -90 -81 -11 -12 22 14 73 56 78 66 102
88 90 85 -2 0 -34 -27 -73 -60z"/>
<path d="M10139 5333 l-24 -28 28 24 c15 14 27 26 27 28 0 8 -8 1 -31 -24z"/>
<path d="M10309 5323 l-24 -28 28 24 c25 23 32 31 24 31 -2 0 -14 -12 -28 -27z"/>
<path d="M9369 5303 l-24 -28 28 24 c15 14 27 26 27 28 0 8 -8 1 -31 -24z"/>
<path d="M10035 5249 c-38 -33 -79 -69 -90 -81 -11 -12 22 14 73 56 78 66 102
88 90 85 -2 0 -34 -27 -73 -60z"/>
<path d="M10205 5239 c-38 -33 -79 -69 -90 -81 -11 -12 22 14 73 56 78 66 102
88 90 85 -2 0 -34 -27 -73 -60z"/>
<path d="M9309 5253 l-24 -28 28 24 c15 14 27 26 27 28 0 8 -8 1 -31 -24z"/>
<path d="M9479 5233 l-24 -28 28 24 c15 14 27 26 27 28 0 8 -8 1 -31 -24z"/>
<path d="M9649 5223 l-24 -28 28 24 c15 14 27 26 27 28 0 8 -8 1 -31 -24z"/>
<path d="M9249 5203 l-24 -28 28 24 c15 14 27 26 27 28 0 8 -8 1 -31 -24z"/>
<path d="M9779 5193 l-24 -28 28 24 c15 14 27 26 27 28 0 8 -8 1 -31 -24z"/>
<path d="M9419 5183 l-24 -28 28 24 c25 23 32 31 24 31 -2 0 -14 -12 -28 -27z"/>
<path d="M9589 5173 l-24 -28 28 24 c15 14 27 26 27 28 0 8 -8 1 -31 -24z"/>
<path d="M9155 5124 l-60 -56 63 52 c54 45 69 61 60 60 -2 0 -30 -26 -63 -56z"/>
<path d="M9719 5143 l-24 -28 28 24 c15 14 27 26 27 28 0 8 -8 1 -31 -24z"/>
<path d="M9315 5099 c-38 -33 -79 -69 -90 -81 -11 -12 22 14 73 56 78 66 102
88 90 85 -2 0 -34 -27 -73 -60z"/>
<path d="M9529 5123 l-24 -28 28 24 c25 23 32 31 24 31 -2 0 -14 -12 -28 -27z"/>
<path d="M9889 5123 l-24 -28 28 24 c25 23 32 31 24 31 -2 0 -14 -12 -28 -27z"/>
<path d="M10059 5113 l-24 -28 28 24 c25 23 32 31 24 31 -2 0 -14 -12 -28 -27z"/>
<path d="M9659 5093 l-24 -28 28 24 c15 14 27 26 27 28 0 8 -8 1 -31 -24z"/>
<path d="M9435 5044 l-60 -56 63 52 c54 45 69 61 60 60 -2 0 -30 -26 -63 -56z"/>
<path d="M9829 5073 l-24 -28 28 24 c25 23 32 31 24 31 -2 0 -14 -12 -28 -27z"/>
<path d="M9999 5063 l-24 -28 28 24 c15 14 27 26 27 28 0 8 -8 1 -31 -24z"/>
<path d="M9059 5043 l-24 -28 28 24 c15 14 27 26 27 28 0 8 -8 1 -31 -24z"/>
<path d="M9555 5009 c-38 -33 -79 -69 -90 -81 -11 -12 22 14 73 56 78 66 102
88 90 85 -2 0 -34 -27 -73 -60z"/>
<path d="M9725 4989 c-38 -33 -79 -69 -90 -81 -11 -12 22 14 73 56 78 66 102
88 90 85 -2 0 -34 -27 -73 -60z"/>
<path d="M9939 5013 l-24 -28 28 24 c15 14 27 26 27 28 0 8 -8 1 -31 -24z"/>
<path d="M8999 4993 l-24 -28 28 24 c15 14 27 26 27 28 0 8 -8 1 -31 -24z"/>
<path d="M9169 4973 l-24 -28 28 24 c25 23 32 31 24 31 -2 0 -14 -12 -28 -27z"/>
<path d="M9339 4963 l-24 -28 28 24 c15 14 27 26 27 28 0 8 -8 1 -31 -24z"/>
<path d="M9845 4934 l-60 -56 63 52 c54 45 69 61 60 60 -2 0 -30 -26 -63 -56z"/>
<path d="M8939 4943 l-24 -28 28 24 c15 14 27 26 27 28 0 8 -8 1 -31 -24z"/>
<path d="M9109 4923 l-24 -28 28 24 c15 14 27 26 27 28 0 8 -8 1 -31 -24z"/>
<path d="M9279 4913 l-24 -28 28 24 c25 23 32 31 24 31 -2 0 -14 -12 -28 -27z"/>
<path d="M8835 4859 c-38 -33 -79 -69 -90 -81 -11 -12 22 14 73 56 78 66 102
88 90 85 -2 0 -34 -27 -73 -60z"/>
<path d="M9409 4883 l-24 -28 28 24 c15 14 27 26 27 28 0 8 -8 1 -31 -24z"/>
<path d="M9049 4873 l-24 -28 28 24 c25 23 32 31 24 31 -2 0 -14 -12 -28 -27z"/>
<path d="M9219 4863 l-24 -28 28 24 c15 14 27 26 27 28 0 8 -8 1 -31 -24z"/>
<path d="M9579 4863 l-24 -28 28 24 c15 14 27 26 27 28 0 8 -8 1 -31 -24z"/>
<path d="M9749 4853 l-24 -28 28 24 c15 14 27 26 27 28 0 8 -8 1 -31 -24z"/>
<path d="M9349 4833 l-24 -28 28 24 c15 14 27 26 27 28 0 8 -8 1 -31 -24z"/>
<path d="M8955 4794 l-60 -56 63 52 c54 45 69 61 60 60 -2 0 -30 -26 -63 -56z"/>
<path d="M9125 4784 l-60 -56 63 52 c54 45 69 61 60 60 -2 0 -30 -26 -63 -56z"/>
<path d="M9519 4813 l-24 -28 28 24 c15 14 27 26 27 28 0 8 -8 1 -31 -24z"/>
<path d="M9689 4803 l-24 -28 28 24 c15 14 27 26 27 28 0 8 -8 1 -31 -24z"/>
<path d="M9245 4749 c-38 -33 -79 -69 -90 -81 -11 -12 22 14 73 56 78 66 102
88 90 85 -2 0 -34 -27 -73 -60z"/>
<path d="M9459 4763 l-24 -28 28 24 c25 23 32 31 24 31 -2 0 -14 -12 -28 -27z"/>
<path d="M9629 4753 l-24 -28 28 24 c15 14 27 26 27 28 0 8 -8 1 -31 -24z"/>
<path d="M8699 4743 c-13 -16 -12 -17 4 -4 9 7 17 15 17 17 0 8 -8 3 -21 -13z"/>
<path d="M8859 4713 l-24 -28 28 24 c15 14 27 26 27 28 0 8 -8 1 -31 -24z"/>
<path d="M9365 4684 l-60 -56 63 52 c54 45 69 61 60 60 -2 0 -30 -26 -63 -56z"/>
<path d="M9029 4703 l-24 -28 28 24 c15 14 27 26 27 28 0 8 -8 1 -31 -24z"/>
<path d="M9525 4669 c-38 -33 -79 -69 -90 -81 -11 -12 22 14 73 56 78 66 102
88 90 85 -2 0 -34 -27 -73 -60z"/>
<path d="M8799 4663 l-24 -28 28 24 c25 23 32 31 24 31 -2 0 -14 -12 -28 -27z"/>
<path d="M8969 4653 l-24 -28 28 24 c25 23 32 31 24 31 -2 0 -14 -12 -28 -27z"/>
<path d="M9099 4623 l-24 -28 28 24 c15 14 27 26 27 28 0 8 -8 1 -31 -24z"/>
<path d="M8909 4603 l-24 -28 28 24 c15 14 27 26 27 28 0 8 -8 1 -31 -24z"/>
<path d="M9269 4603 l-24 -28 28 24 c15 14 27 26 27 28 0 8 -8 1 -31 -24z"/>
<path d="M9039 4573 l-24 -28 28 24 c15 14 27 26 27 28 0 8 -8 1 -31 -24z"/>
<path d="M9209 4553 l-24 -28 28 24 c15 14 27 26 27 28 0 8 -8 1 -31 -24z"/>
<path d="M9379 4543 l-24 -28 28 24 c25 23 32 31 24 31 -2 0 -14 -12 -28 -27z"/>
<path d="M8972 4520 c-18 -17 -29 -30 -24 -30 5 0 21 14 37 30 37 38 30 38
-13 0z"/>
<path d="M9149 4503 l-24 -28 28 24 c25 23 32 31 24 31 -2 0 -14 -12 -28 -27z"/>
<path d="M9319 4493 l-24 -28 28 24 c15 14 27 26 27 28 0 8 -8 1 -31 -24z"/>
<path d="M9075 4443 c-22 -19 -31 -31 -20 -25 19 9 74 63 64 62 -2 -1 -22 -17
-44 -37z"/>
<path d="M9215 4409 c-100 -86 -114 -104 -23 -30 69 56 107 92 97 90 -2 0 -35
-27 -74 -60z"/>
<path d="M3458 6750 l-63 -69 3 40 c2 22 -1 46 -8 54 -13 16 -50 21 -50 6 0
-5 8 -8 18 -7 14 1 17 -7 16 -49 0 -27 -4 -66 -8 -85 -7 -35 -7 -35 11 -14 10
12 38 47 62 78 l45 57 12 -31 c7 -16 25 -35 39 -42 60 -27 118 78 63 116 -45
32 -72 21 -140 -54z m140 32 c16 -21 15 -33 -4 -60 -34 -48 -109 0 -82 52 6
12 16 24 22 28 15 10 48 0 64 -20z"/>
<path d="M995 6156 c-189 -65 -338 -131 -350 -155 -11 -24 -169 -94 -592 -262
-16 -6 -23 -13 -16 -16 13 -5 258 91 479 187 110 48 134 55 139 42 3 -8 2 -19
-3 -24 -9 -9 -452 -197 -555 -235 -62 -24 -88 -43 -51 -39 11 1 36 -50 91
-183 75 -183 76 -184 55 -200 -20 -16 -20 -17 44 -170 35 -85 64 -161 64 -168
0 -7 -7 -13 -15 -13 -8 0 -18 -1 -21 -2 -4 -2 -37 69 -74 157 -37 88 -71 159
-76 158 -5 -1 -16 -4 -25 -8 -12 -4 -20 6 -34 42 -10 26 -20 42 -23 35 -2 -7
3 -30 12 -51 13 -34 13 -40 1 -45 -24 -9 -18 -35 39 -172 71 -173 71 -170 47
-177 -16 -4 -25 9 -57 86 -21 49 -40 85 -42 78 -2 -6 10 -45 27 -85 17 -41 31
-78 31 -83 0 -5 -13 -14 -30 -20 -28 -10 -42 -33 -21 -33 31 0 960 379 961
392 0 4 -74 185 -165 404 -91 218 -165 398 -165 400 0 8 418 165 454 170 82
12 127 -31 169 -156 66 -198 274 -715 343 -852 50 -99 84 -192 84 -229 0 -43
-23 -91 -61 -127 -50 -47 -237 -136 -544 -260 -766 -309 -1085 -445 -1085
-464 0 -17 3 -17 32 -4 271 115 728 306 933 390 432 178 477 197 565 243 92
47 113 62 148 107 60 77 50 159 -43 351 -35 72 -74 157 -88 190 -55 133 -231
585 -258 663 -47 139 -86 182 -161 182 -18 0 -91 -20 -163 -44z m-174 -599
l147 -352 -50 -23 c-27 -13 -51 -22 -54 -20 -2 3 -35 79 -73 169 -37 90 -72
163 -77 162 -5 -1 -16 -4 -24 -7 -12 -5 -32 35 -88 172 -39 97 -72 181 -72
185 0 8 117 65 135 66 6 0 76 -158 156 -352z m-235 98 c74 -179 74 -180 53
-195 -20 -16 -20 -17 47 -179 64 -156 67 -164 49 -177 -11 -8 -22 -11 -26 -7
-4 5 -25 53 -47 108 -79 199 -88 214 -117 212 -24 -2 -30 8 -100 170 -41 94
-76 177 -77 183 -3 12 119 72 135 67 5 -2 42 -83 83 -182z m-198 23 c126 -289
122 -277 101 -283 -10 -4 -19 -11 -19 -16 0 -5 29 -80 65 -166 36 -86 65 -159
65 -162 0 -7 -90 -45 -94 -40 -2 2 -36 81 -74 175 -39 94 -105 251 -147 348
-42 98 -74 180 -70 184 9 9 108 51 121 52 7 0 30 -42 52 -92z m-115 -158 c117
-270 217 -513 214 -516 -2 -2 -19 -10 -38 -18 l-35 -15 -69 170 c-55 135 -72
168 -84 164 -9 -4 -20 -7 -25 -8 -7 -2 -156 344 -156 364 0 11 104 49 111 41
4 -4 41 -86 82 -182z m509 -207 l65 -158 -35 -18 c-19 -10 -38 -15 -42 -10 -4
4 -33 71 -64 148 -32 77 -60 145 -63 152 -4 11 40 42 63 43 5 0 40 -71 76
-157z m-160 -56 c32 -78 60 -149 63 -158 5 -13 -3 -20 -30 -29 -20 -7 -38 -10
-39 -8 -10 11 -128 309 -124 313 6 6 51 24 63 24 6 1 36 -63 67 -142z m-292
-122 c34 -82 64 -155 66 -160 6 -14 -65 -40 -76 -29 -9 11 -131 306 -127 310
3 3 72 31 73 30 1 -1 30 -68 64 -151z m-151 -74 c33 -83 61 -152 61 -155 0 -6
-70 -29 -75 -24 -13 15 -123 303 -118 309 8 7 36 15 59 18 6 0 39 -66 73 -148z"/>
<path d="M12082 6113 c-11 -43 -23 -97 -27 -120 l-7 -43 58 -25 c31 -14 72
-35 91 -46 l34 -21 -22 -24 c-44 -47 -13 -114 52 -114 55 0 80 82 36 117 -13
10 -56 36 -95 58 l-72 40 0 46 c0 46 25 147 40 163 4 4 35 -6 69 -24 l60 -33
-24 -19 c-47 -37 -20 -118 40 -118 47 0 84 68 57 105 -19 27 -225 135 -257
135 -8 0 -21 -31 -33 -77z m68 43 c0 -7 -7 -32 -14 -55 -8 -22 -18 -68 -22
-100 -6 -55 -8 -59 -25 -50 -24 12 -24 22 2 130 17 74 24 89 40 89 10 0 19 -6
19 -14z m200 -106 c24 -24 24 -29 4 -58 -26 -37 -94 -20 -94 24 0 19 36 54 55
54 8 0 24 -9 35 -20z m-69 -220 c26 -15 25 -64 -2 -84 -23 -16 -47 -12 -66 12
-18 22 -16 39 7 62 23 23 33 24 61 10z"/>
<path d="M5575 6113 c-123 -47 -197 -78 -205 -88 -10 -12 53 -116 108 -179
l29 -33 38 20 c32 16 140 57 152 57 1 0 3 -13 3 -28 0 -36 18 -59 50 -67 37
-9 80 27 80 66 0 31 -30 69 -56 69 -16 0 -157 -46 -185 -61 -20 -10 -85 52
-130 124 l-29 47 27 11 c43 17 105 39 109 39 3 0 2 -11 -2 -24 -4 -19 1 -32
20 -50 32 -33 60 -33 91 -1 14 13 25 34 25 45 0 26 -43 70 -67 69 -10 -1 -36
-8 -58 -16z m89 -19 c32 -31 11 -84 -32 -84 -47 0 -66 36 -42 81 13 23 53 25
74 3z m-221 -106 c14 -24 44 -64 66 -90 40 -45 41 -47 20 -53 -25 -8 -32 -1
-104 105 -32 46 -41 66 -32 72 20 13 24 10 50 -34z m367 -109 c16 -28 -11 -69
-45 -69 -33 0 -61 41 -46 69 24 45 68 45 91 0z"/>
<path d="M1078 5952 c-21 -9 -38 -22 -38 -28 0 -12 139 -356 149 -366 8 -9
101 34 101 47 0 6 -31 89 -69 185 -76 191 -76 192 -143 162z m128 -170 c35
-90 64 -168 64 -173 0 -12 -63 -38 -72 -30 -15 14 -138 333 -132 342 8 13 45
29 63 26 8 -1 41 -73 77 -165z"/>
<path d="M905 5878 c-27 -12 -51 -22 -52 -23 -3 -2 147 -377 153 -384 2 -2 9
1 16 6 7 6 30 16 51 22 20 7 37 16 37 20 0 11 -141 365 -148 373 -4 4 -29 -3
-57 -14z m113 -163 c82 -208 79 -191 37 -205 -20 -7 -38 -10 -41 -7 -9 8 -134
319 -134 331 0 15 62 47 72 37 3 -3 33 -73 66 -156z"/>
<path d="M3848 5686 c-60 -16 -92 -38 -127 -87 -53 -73 -65 -203 -27 -278 41
-78 132 -140 252 -172 65 -17 96 -19 176 -14 l96 6 409 -165 c225 -91 418
-166 430 -166 12 0 24 4 28 10 3 5 67 -13 148 -41 167 -59 172 -60 172 -35 0
15 -29 34 -125 82 -93 46 -133 71 -153 98 -16 20 -32 36 -36 36 -26 0 -419
235 -630 375 -116 78 -130 91 -169 155 -62 99 -157 165 -284 195 -75 18 -98
18 -160 1z m145 -27 c59 -12 66 -19 44 -37 -9 -8 -26 -8 -57 -1 -47 11 -150 2
-150 -12 0 -5 27 -6 59 -3 33 4 71 4 86 0 l27 -7 -59 -58 c-32 -32 -72 -82
-88 -112 -25 -46 -30 -65 -30 -126 0 -40 -2 -73 -4 -73 -19 0 -74 59 -95 102
-63 126 -6 285 115 323 55 17 82 18 152 4z m140 -54 c23 -14 55 -36 70 -49
l29 -23 -50 -37 c-54 -39 -104 -106 -123 -163 -6 -19 -9 -66 -7 -105 l4 -70
-46 6 c-25 3 -68 13 -96 22 -62 19 -74 40 -74 123 0 75 31 135 113 219 63 65
77 70 130 47 10 -4 17 -3 17 4 0 6 -11 13 -25 17 -27 7 -33 19 -12 27 21 9 28
8 70 -18z m145 -146 l27 -43 -45 -45 c-47 -48 -70 -100 -70 -164 0 -34 -1 -35
-45 -41 -25 -4 -49 -5 -54 -2 -13 9 -22 82 -15 126 10 59 62 139 119 182 27
20 51 36 53 34 2 -2 15 -23 30 -47z m159 -143 c130 -89 360 -231 501 -310 83
-46 102 -61 96 -74 -4 -10 -9 -32 -12 -49 -2 -18 -6 -33 -9 -33 -10 0 -779
314 -791 323 -17 13 -7 77 19 128 15 31 71 89 85 89 2 0 52 -33 111 -74z m666
-383 c4 -3 -3 -11 -16 -18 -17 -9 -22 -19 -21 -48 1 -40 -11 -50 -21 -17 -12
39 35 107 58 83z m88 -79 c63 -31 88 -49 81 -56 -7 -7 -37 -1 -99 19 -79 27
-88 32 -91 56 -2 15 2 27 8 27 6 0 51 -21 101 -46z m144 -71 c35 -17 51 -42
18 -28 -10 4 -28 10 -40 12 -13 3 -23 12 -23 19 0 18 2 18 45 -3z"/>
<path d="M3773 5578 c-19 -25 -24 -38 -14 -38 11 0 35 39 28 46 -2 3 -9 -1
-14 -8z"/>
<path d="M4340 5322 c0 -11 41 -34 48 -28 3 4 -3 13 -14 21 -21 16 -34 19 -34
7z"/>
<path d="M4430 5263 c0 -25 428 -282 470 -283 8 0 -41 31 -110 68 -69 37 -176
102 -238 145 -115 78 -122 83 -122 70z"/>
<path d="M13630 5573 c-275 -100 -1100 -450 -1915 -812 -71 -32 -156 -68 -188
-80 -143 -53 -197 -96 -197 -158 0 -56 45 -176 141 -373 83 -170 218 -483 283
-657 66 -175 150 -263 252 -263 67 0 117 16 274 90 69 32 296 130 505 218 871
365 875 366 875 385 0 9 -4 17 -8 17 -27 0 -1070 -446 -1382 -590 -212 -98
-238 -107 -290 -91 -55 16 -110 68 -148 138 -35 67 -152 350 -152 369 0 19 57
59 115 79 28 10 149 62 270 116 788 348 1283 563 1504 651 47 18 87 40 89 47
3 10 -1 12 -15 9 -17 -5 -28 14 -81 146 -34 84 -62 155 -62 158 0 10 63 29 71
21 5 -5 26 -51 48 -103 22 -52 40 -86 41 -74 0 11 -17 60 -38 110 -35 81 -41
89 -64 87 -24 -1 -31 10 -102 172 -42 95 -79 180 -82 189 -4 11 2 19 17 25 13
5 47 18 75 29 l51 20 69 -169 c38 -93 70 -163 72 -154 2 9 -21 75 -52 148 -85
204 -81 181 -29 200 l44 16 19 -42 c20 -44 28 -29 10 19 -8 20 -8 29 2 35 7 4
10 10 7 13 -5 6 -266 -95 -552 -213 -188 -78 -560 -240 -1072 -466 -220 -97
-429 -188 -464 -201 -34 -13 -97 -42 -138 -63 l-75 -39 7 26 c8 33 24 45 105
78 36 15 166 72 290 127 915 403 1569 682 1802 768 46 16 87 34 93 40 10 10 0
11 -25 2z m-194 -384 c75 -170 80 -185 63 -193 -11 -5 -19 -13 -19 -18 0 -5
29 -79 64 -165 l64 -155 -45 -20 c-25 -11 -48 -16 -52 -11 -4 4 -25 51 -46
103 -35 88 -133 320 -218 517 l-36 82 62 24 c34 14 67 24 72 23 6 -1 47 -85
91 -187z m-118 -151 c166 -389 173 -409 170 -420 -2 -5 -18 -16 -35 -23 l-32
-13 -47 111 c-25 62 -56 136 -67 165 -15 40 -24 51 -36 47 -9 -4 -20 -7 -25
-8 -4 -1 -43 83 -86 186 l-78 189 51 23 c29 13 55 24 58 24 4 1 61 -126 127
-281z m-173 38 c76 -188 77 -190 56 -205 -20 -16 -19 -17 46 -174 36 -87 64
-159 62 -161 -2 -2 -13 -6 -24 -10 -18 -5 -28 11 -86 152 -36 86 -70 156 -75
155 -5 -1 -16 -4 -24 -7 -12 -5 -34 38 -98 186 -45 106 -79 194 -75 196 4 1
37 16 73 31 36 16 66 28 66 27 1 0 37 -86 79 -190z m-160 -63 c42 -98 79 -184
82 -190 3 -7 -2 -13 -10 -13 -9 0 -18 -4 -22 -10 -3 -5 21 -75 54 -155 70
-170 73 -180 47 -180 -15 0 -33 33 -86 160 -37 88 -71 159 -76 158 -5 -1 -16
-4 -25 -8 -11 -4 -21 9 -39 52 -13 32 -47 113 -77 179 -29 67 -53 126 -53 131
0 10 86 50 111 52 12 1 38 -47 94 -176z m-143 -68 c73 -169 77 -180 58 -187
-11 -4 -20 -10 -20 -13 0 -3 29 -78 65 -165 36 -87 65 -163 65 -168 0 -12 -48
-33 -54 -24 -2 4 -34 81 -71 170 -36 90 -102 247 -146 349 -44 102 -79 186
-77 187 28 16 76 34 88 33 9 -1 45 -74 92 -182z m-132 -12 c90 -210 230 -545
230 -554 0 -13 -44 -18 -52 -6 -4 7 -35 80 -69 164 -57 140 -64 151 -82 142
-10 -6 -23 -7 -27 -2 -9 10 -150 352 -150 364 0 9 55 37 75 38 6 1 40 -65 75
-146z m-92 -84 c40 -96 72 -180 72 -186 0 -6 -9 -13 -20 -16 -19 -5 -16 -15
45 -163 36 -87 65 -164 65 -170 0 -15 -31 -27 -41 -17 -4 4 -35 77 -69 161
-61 148 -64 153 -89 148 -25 -6 -28 0 -104 175 -43 99 -77 185 -75 191 5 13
132 68 139 60 3 -4 38 -86 77 -183z m-153 -80 c42 -96 72 -175 68 -177 -35
-12 -34 -20 31 -177 36 -87 66 -163 66 -167 0 -9 -89 -53 -94 -46 -1 1 -31 73
-66 158 -35 85 -101 242 -147 348 -47 107 -82 197 -78 200 3 3 34 18 68 33 48
20 64 23 69 14 5 -7 42 -91 83 -186z m-169 -39 c97 -225 225 -533 222 -535 -2
-1 -18 -10 -35 -19 l-33 -16 -16 37 c-8 21 -38 94 -66 163 -28 69 -55 129 -59
133 -4 5 -16 4 -26 -2 -18 -9 -25 2 -81 137 -33 81 -68 164 -77 185 l-16 38
53 23 c29 13 56 21 60 18 3 -4 37 -77 74 -162z m1042 10 c34 -83 62 -154 62
-159 0 -4 -16 -15 -35 -24 -35 -17 -36 -16 -44 6 -5 12 -34 82 -65 156 -31 74
-55 135 -53 136 7 6 63 34 68 35 3 0 33 -68 67 -150z m-1165 -82 c71 -172 75
-184 56 -192 -10 -5 -19 -14 -19 -21 0 -6 29 -82 65 -169 36 -86 63 -161 60
-167 -4 -5 -14 -9 -24 -9 -14 0 -33 37 -83 158 -36 86 -69 156 -74 155 -5 -1
-16 -4 -25 -8 -14 -5 -44 55 -166 343 l-14 33 63 29 c35 16 68 29 74 29 7 1
46 -81 87 -181z m995 55 c22 -54 50 -122 61 -151 l21 -53 -36 -15 c-20 -8 -37
-14 -39 -12 -2 2 -101 242 -122 295 -5 13 28 31 58 32 12 1 29 -28 57 -96z
m-1155 -120 c43 -98 77 -183 77 -190 0 -6 -9 -13 -19 -15 -17 -3 -13 -19 50
-172 52 -128 66 -172 57 -178 -7 -4 -17 -6 -21 -5 -5 1 -39 76 -75 165 -45
107 -71 160 -79 157 -7 -3 -19 -7 -25 -10 -14 -5 -176 360 -165 371 9 9 100
52 113 53 6 1 45 -79 87 -176z m1026 17 c33 -82 61 -154 61 -159 0 -12 -62
-33 -71 -24 -9 10 -130 305 -126 309 5 6 52 23 63 23 6 1 39 -66 73 -149z
m-1171 -80 c92 -213 87 -200 69 -200 -9 0 -18 -4 -22 -9 -3 -6 25 -83 62 -172
64 -155 66 -162 48 -175 -41 -30 -50 -20 -115 139 -35 83 -101 238 -147 344
-46 105 -83 195 -83 198 0 10 104 55 111 47 3 -4 38 -81 77 -172z m946 -23
l64 -157 -30 -16 c-16 -8 -34 -14 -40 -12 -5 2 -38 72 -73 156 l-63 153 37 18
c20 11 37 18 38 17 1 -1 31 -73 67 -159z m-1090 5 c180 -420 236 -566 224
-574 -16 -10 -58 -22 -62 -17 -1 2 -32 76 -68 164 -62 151 -67 160 -93 160
-26 0 -31 9 -101 179 -41 99 -71 183 -66 188 8 8 81 36 97 37 6 0 36 -61 69
-137z m-116 -90 c39 -97 72 -182 72 -188 0 -7 -7 -14 -15 -18 -8 -3 -15 -11
-15 -18 0 -7 29 -83 64 -168 55 -131 62 -156 49 -164 -8 -4 -19 -4 -23 0 -5 5
-45 92 -88 194 -44 102 -112 255 -150 340 l-71 155 42 22 c23 12 47 22 52 22
6 1 43 -79 83 -177z m1052 17 c34 -83 58 -154 54 -158 -5 -4 -22 -13 -37 -19
-25 -11 -28 -10 -36 11 -5 12 -34 82 -65 156 -31 74 -55 135 -54 136 17 9 55
24 64 24 6 1 39 -67 74 -150z m-1160 -73 c98 -216 220 -501 220 -513 0 -5 -13
-19 -29 -31 l-29 -21 -52 122 c-28 67 -94 208 -146 312 -52 105 -98 208 -101
229 -5 35 -3 42 23 62 15 13 29 22 30 21 1 -1 39 -83 84 -181z m870 -54 c34
-84 61 -155 59 -156 -16 -14 -69 -34 -72 -28 -11 17 -127 303 -127 312 0 12
63 40 71 31 3 -3 34 -75 69 -159z m-151 -76 c34 -82 60 -150 59 -151 -13 -10
-49 -25 -61 -25 -9 0 -37 54 -76 149 -33 83 -61 152 -61 155 0 10 65 34 72 27
3 -3 34 -73 67 -155z m-179 17 c18 -43 45 -109 61 -147 16 -37 29 -72 29 -78
0 -7 -41 -27 -68 -32 -3 -1 -132 304 -132 312 0 5 45 21 62 21 11 1 26 -23 48
-76z m-234 -182 c35 -84 64 -156 64 -160 0 -7 -71 -33 -76 -28 -6 6 -124 299
-124 307 0 11 51 40 64 37 4 -2 37 -72 72 -156z"/>
<path d="M6632 5491 c-187 -46 -350 -175 -430 -341 -42 -87 -72 -205 -72 -282
2 -187 93 -379 238 -501 75 -64 248 -148 396 -192 l118 -35 82 21 c93 25 185
65 192 84 3 7 32 34 65 60 63 49 89 88 89 130 0 28 -37 107 -66 143 -19 22
-20 22 -79 6 -88 -23 -238 -98 -285 -142 -45 -43 -47 -58 -25 -142 8 -30 15
-56 15 -57 0 -1 -15 -4 -32 -6 -25 -3 -22 -4 15 -5 34 -2 47 2 47 12 0 18 117
104 190 141 61 31 200 49 200 26 0 -7 -22 -36 -50 -64 -50 -52 -59 -54 -73
-12 -2 5 -41 -8 -86 -29 -45 -21 -103 -44 -129 -52 -43 -13 -44 -14 -10 -10
21 3 77 20 125 40 48 19 89 33 92 30 3 -2 0 -17 -5 -32 -12 -34 -109 -85 -206
-108 l-67 -17 -123 37 c-247 74 -414 182 -506 329 -55 89 -56 94 -25 122 l28
23 38 -69 c46 -84 140 -187 220 -241 80 -54 194 -106 248 -113 43 -5 43 -5 9
5 -95 28 -243 109 -315 172 -55 48 -124 136 -155 198 -12 25 -25 47 -29 50 -8
6 -15 128 -16 256 0 96 2 103 37 175 21 40 61 100 90 133 34 38 52 68 53 85 0
22 10 31 65 58 98 48 209 67 354 60 69 -3 145 -12 176 -22 69 -21 190 -75 190
-86 0 -4 -22 -23 -50 -43 -27 -20 -50 -40 -50 -46 0 -44 121 -258 184 -325 27
-28 41 -35 72 -35 54 0 85 18 111 65 29 51 30 122 4 207 -11 35 -22 75 -26 90
-9 45 -60 93 -143 137 -220 114 -498 159 -690 112z m269 -1 c155 -18 369 -90
467 -157 59 -40 84 -79 84 -130 0 -53 -16 -60 -41 -19 -40 65 -138 144 -234
190 -126 61 -222 81 -377 80 -138 0 -213 -16 -314 -65 -62 -30 -76 -34 -76
-21 0 13 120 78 175 96 113 35 184 41 316 26z m-536 -253 c-111 -122 -148
-242 -126 -405 18 -131 17 -143 -15 -170 -33 -29 -39 -23 -59 76 -44 205 13
404 157 555 l70 72 14 -33 c15 -33 15 -33 -41 -95z m906 3 c9 -122 62 -212
154 -261 25 -13 45 -27 45 -30 0 -3 -11 -15 -23 -28 l-24 -22 -64 68 c-69 74
-129 177 -150 260 -11 48 -11 54 6 73 35 38 49 22 56 -60z m84 -12 c26 -29 52
-63 58 -75 12 -27 32 -30 46 -5 8 15 11 13 21 -13 12 -32 16 -137 6 -154 -21
-33 -134 62 -172 144 -24 50 -34 155 -15 155 5 0 30 -24 56 -52z m-159 -16
c25 -95 113 -238 179 -290 14 -11 25 -23 25 -26 0 -10 -40 -7 -60 4 -40 21
-200 285 -200 331 0 18 21 40 34 36 5 -2 15 -26 22 -55z m44 -652 c12 -23 12
-23 -71 -40 -76 -15 -170 -61 -245 -120 -35 -28 -66 -50 -70 -50 -11 0 7 54
24 73 37 41 284 156 339 157 7 0 17 -9 23 -20z m38 -65 c22 -47 17 -52 -60
-58 -88 -7 -182 -51 -275 -126 l-61 -50 -11 30 c-9 28 -7 32 30 67 62 56 155
110 239 137 99 32 124 32 138 0z"/>
<path d="M6197 5020 c-3 -11 -1 -20 4 -20 5 0 9 9 9 20 0 11 -2 20 -4 20 -2 0
-6 -9 -9 -20z"/>
<path d="M6184 4904 c-9 -49 1 -163 16 -177 9 -9 10 -4 4 23 -4 19 -7 70 -6
113 2 83 -3 98 -14 41z"/>
<path d="M1390 5067 c-43 -15 -80 -68 -80 -114 0 -50 54 -103 104 -103 115 0
164 125 79 202 -26 24 -63 29 -103 15z m24 -18 c-39 -11 -52 -27 -69 -81 l-14
-43 0 36 c-1 48 44 99 86 98 l28 -1 -31 -9z m89 -41 c20 -23 22 -76 4 -99 -17
-22 -51 -39 -78 -39 -34 0 -69 38 -69 75 0 80 93 122 143 63z"/>
<path d="M13636 5051 c-3 -5 1 -24 8 -42 l15 -34 -2 43 c-1 40 -9 53 -21 33z"/>
<path d="M1014 4907 c-70 -64 -50 -164 37 -187 47 -13 84 -3 117 33 37 40 33
114 -9 156 -43 44 -96 43 -145 -2z m58 7 c-45 -20 -74 -69 -68 -114 4 -25 3
-31 -4 -20 -28 44 11 133 63 143 40 8 42 6 9 -9z m87 -40 c42 -53 12 -127 -56
-140 -71 -14 -112 87 -58 141 34 35 86 34 114 -1z"/>
<path d="M2853 4903 c-34 -6 -96 -84 -149 -186 -85 -165 -511 -888 -721 -1225
-74 -117 -85 -149 -73 -194 13 -44 44 -73 125 -120 111 -64 389 -234 520 -319
148 -95 208 -117 268 -99 56 16 95 61 145 162 22 47 150 267 283 489 133 222
277 467 321 543 44 77 95 162 113 190 51 80 85 153 85 181 0 61 -46 110 -170
183 -52 30 -176 103 -275 162 -233 138 -394 226 -425 232 -14 3 -35 3 -47 1z
m185 -99 c76 -42 211 -122 302 -177 91 -55 202 -122 248 -149 46 -28 99 -65
118 -84 48 -49 46 -79 -17 -187 l-52 -89 -121 7 c-110 7 -122 5 -137 -11 -9
-11 -77 -125 -151 -254 -75 -129 -190 -325 -256 -435 l-121 -200 39 -70 c21
-38 48 -89 61 -112 l24 -42 -32 -64 c-42 -86 -86 -134 -132 -147 -47 -12 -83
-2 -152 42 -98 63 -503 304 -567 338 -129 68 -181 137 -149 197 7 16 112 190
232 388 296 488 439 735 520 894 73 145 142 231 184 231 13 0 84 -34 159 -76z
m569 -718 c7 -7 -81 -161 -369 -641 -256 -428 -247 -414 -254 -400 -2 6 -26
48 -53 94 l-49 83 120 198 120 197 23 -23 c34 -34 70 -20 70 27 0 33 -2 34
-37 34 -35 0 -36 1 -24 20 11 18 65 109 209 359 l40 69 99 -6 c55 -3 102 -8
105 -11z m-407 -451 c10 -12 10 -18 0 -30 -16 -19 -39 -19 -46 0 -6 15 11 45
26 45 4 0 13 -7 20 -15z"/>
<path d="M2835 4824 c-20 -20 -16 -73 6 -87 45 -28 103 28 81 78 -14 30 -61
35 -87 9z m65 -8 c6 -8 10 -25 8 -38 -2 -18 -9 -23 -32 -23 -17 0 -33 7 -40
18 -9 15 -7 22 13 38 28 23 35 23 51 5z"/>
<path d="M2866 4803 c-12 -12 -6 -33 9 -33 8 0 15 6 15 14 0 17 -14 28 -24 19z"/>
<path d="M2916 4679 c-32 -5 -68 -15 -80 -23 -12 -7 -176 -277 -365 -600
l-343 -586 16 -93 c10 -50 23 -102 30 -115 14 -27 436 -286 447 -275 4 5 99
161 210 348 406 685 650 1106 644 1115 -3 5 -92 58 -198 118 -211 121 -240
130 -361 111z m347 -120 c106 -61 194 -113 196 -115 6 -5 -820 -1408 -843
-1430 -8 -8 -63 21 -211 112 -110 67 -208 133 -217 146 -10 13 -23 61 -29 109
-12 84 -12 87 12 130 66 116 661 1125 668 1132 12 12 91 25 164 26 l69 1 191
-111z"/>
<path d="M2938 4445 c-39 -22 -106 -121 -196 -291 -44 -82 -145 -258 -225
-390 l-145 -242 9 -46 c17 -95 52 -139 128 -164 48 -17 142 -15 168 3 23 16
232 338 308 475 26 47 80 139 120 205 122 202 128 216 115 283 -20 109 -102
182 -204 182 -28 -1 -63 -7 -78 -15z m147 -14 c73 -33 125 -113 125 -192 0
-27 -46 -116 -142 -273 -46 -77 -59 -91 -88 -99 -69 -18 -178 11 -222 60 -10
10 -27 40 -38 66 l-21 47 59 101 60 101 4 -66 c5 -75 25 -111 79 -139 51 -27
146 -20 192 16 74 56 98 165 53 241 -55 94 -186 115 -265 43 l-24 -22 12 23
c21 40 81 101 104 105 46 9 73 6 112 -12z m-17 -85 c100 -52 116 -171 34 -257
-72 -76 -205 -69 -248 13 -26 48 -23 135 5 182 41 66 143 96 209 62z m-364
-358 c9 -36 62 -94 103 -114 21 -10 72 -20 115 -23 l76 -6 -66 -113 -67 -113
-18 43 c-44 103 -119 160 -215 161 l-59 0 55 94 c30 51 58 93 62 93 5 0 10
-10 14 -22z m37 -214 c41 -28 79 -83 100 -142 10 -29 8 -37 -18 -77 l-29 -44
0 53 c0 114 -107 195 -218 165 -22 -6 -49 -18 -58 -26 -10 -9 -18 -13 -18 -9
0 15 53 96 68 106 31 19 130 4 173 -26z m-58 -68 c100 -41 125 -168 50 -257
-70 -83 -207 -77 -255 12 -33 61 -19 169 28 211 53 47 117 60 177 34z m-241
-145 c-6 -64 24 -133 70 -161 40 -24 139 -27 182 -5 39 21 40 20 10 -25 -43
-65 -123 -76 -214 -30 -52 26 -77 61 -90 125 -11 51 -10 57 15 100 15 25 28
45 29 45 2 0 1 -22 -2 -49z"/>
<path d="M2919 4271 c-24 -24 -29 -38 -29 -76 0 -38 5 -52 29 -76 33 -32 56
-36 106 -15 103 43 76 196 -35 196 -33 0 -48 -6 -71 -29z m101 -6 c0 -7 8 -12
18 -11 9 0 16 -5 14 -13 -1 -7 5 -19 14 -25 14 -10 14 -15 3 -27 -8 -8 -14
-20 -15 -26 -2 -29 -5 -32 -18 -27 -7 3 -16 -2 -19 -10 -8 -19 -37 -21 -37 -3
0 8 -3 8 -9 -2 -12 -18 -45 -6 -37 14 3 9 0 15 -8 15 -21 0 -27 28 -8 39 10 6
12 11 5 11 -18 0 -16 40 2 40 8 0 15 6 15 14 0 22 19 30 35 16 12 -10 15 -9
15 3 0 10 6 14 15 11 8 -4 15 -12 15 -19z"/>
<path d="M2573 3650 c-31 -13 -63 -68 -63 -108 0 -46 46 -92 92 -92 78 0 133
75 104 144 -7 17 -20 37 -29 44 -21 17 -77 24 -104 12z m67 -26 c0 -11 6 -14
21 -9 19 6 21 4 16 -14 -3 -14 0 -21 9 -21 8 0 14 -9 14 -20 0 -12 -7 -20 -17
-20 -13 0 -14 -3 -5 -12 15 -15 -4 -39 -25 -31 -12 5 -15 2 -10 -10 5 -12 1
-17 -12 -17 -11 0 -22 6 -24 13 -4 9 -8 9 -15 -2 -14 -19 -43 -6 -35 15 4 12
3 15 -5 10 -17 -11 -28 24 -11 35 12 8 12 10 0 18 -17 11 -7 41 14 41 8 0 14
6 13 13 -2 7 7 12 20 11 12 0 22 3 22 8 0 4 7 8 15 8 8 0 15 -7 15 -16z"/>
<path d="M3621 4364 c-25 -32 -25 -33 -5 -62 29 -42 104 -17 104 35 0 20 -38
53 -59 53 -11 0 -29 -12 -40 -26z m74 -5 c12 -18 -4 -56 -24 -62 -11 -3 -28 1
-38 8 -15 11 -15 17 -5 39 12 27 54 37 67 15z"/>
<path d="M3652 4334 c4 -21 22 -23 26 -1 2 10 -3 17 -13 17 -10 0 -15 -6 -13
-16z"/>
<path d="M1993 3380 c-26 -11 -41 -56 -26 -79 15 -24 74 -27 90 -5 20 27 16
61 -9 78 -25 18 -25 18 -55 6z m56 -28 c22 -41 -40 -82 -69 -47 -10 12 -9 20
4 40 19 29 51 33 65 7z"/>
<path d="M2005 3340 c-7 -12 2 -30 16 -30 5 0 9 9 9 20 0 21 -15 27 -25 10z"/>
<path d="M2756 2924 c-37 -36 -6 -101 43 -89 14 4 32 11 38 17 16 13 17 60 1
76 -17 17 -64 15 -82 -4z m68 -9 c15 -16 11 -44 -8 -57 -37 -26 -76 14 -50 50
18 26 37 28 58 7z"/>
<path d="M2785 2900 c-7 -12 2 -30 16 -30 12 0 12 27 0 35 -5 3 -12 1 -16 -5z"/>
<path d="M3426 3934 c-7 -19 10 -44 29 -44 19 0 36 25 29 44 -3 9 -16 16 -29
16 -13 0 -26 -7 -29 -16z m44 -15 c0 -5 -7 -9 -15 -9 -15 0 -20 12 -9 23 8 8
24 -1 24 -14z"/>
<path d="M3294 3875 c-8 -21 2 -45 19 -45 20 0 40 27 33 45 -7 19 -45 20 -52
0z m36 -10 c0 -8 -7 -15 -15 -15 -16 0 -20 12 -8 23 11 12 23 8 23 -8z"/>
<path d="M2995 3350 c-8 -25 1 -40 25 -40 21 0 40 28 33 48 -8 20 -51 14 -58
-8z m45 -11 c0 -5 -7 -9 -15 -9 -15 0 -20 12 -9 23 8 8 24 -1 24 -14z"/>
<path d="M3012 3208 c-17 -17 -15 -47 4 -55 23 -9 51 23 38 44 -14 22 -27 26
-42 11z m28 -23 c0 -8 -4 -15 -9 -15 -13 0 -22 16 -14 24 11 11 23 6 23 -9z"/>
<path d="M700 4659 c0 -6 -6 -9 -14 -6 -20 8 -32 -12 -31 -48 0 -36 11 -55 31
-55 14 0 13 2 0 16 -20 20 -20 48 0 68 20 20 33 20 56 -1 10 -9 18 -11 18 -5
0 11 -38 42 -52 42 -5 0 -8 -5 -8 -11z m-27 -24 c-3 -9 -8 -14 -10 -11 -3 3
-2 9 2 15 9 16 15 13 8 -4z"/>
<path d="M513 4586 c1 -6 -5 -10 -13 -11 -10 0 -14 -11 -13 -39 0 -40 14 -56
48 -56 15 0 12 4 -11 16 -32 16 -36 40 -11 72 14 18 54 15 66 -5 6 -10 11 -13
11 -7 0 6 -7 18 -17 25 -19 16 -62 20 -60 5z"/>
<path d="M746 4573 c-6 -14 -5 -15 5 -6 7 7 10 15 7 18 -3 3 -9 -2 -12 -12z"/>
<path d="M378 4520 c39 -24 43 -61 10 -84 -12 -9 -18 -16 -12 -16 17 0 44 35
44 56 0 25 -35 64 -58 64 -11 0 -5 -7 16 -20z"/>
<path d="M316 4511 c-9 -9 -16 -27 -16 -38 0 -23 29 -53 51 -53 10 1 9 3 -3
11 -10 5 -18 18 -18 27 0 15 -2 15 -10 2 -7 -12 -10 -8 -10 15 0 18 3 25 8 18
6 -9 11 -7 20 7 16 25 -1 34 -22 11z"/>
<path d="M571 4507 c-13 -21 -12 -21 5 -5 10 10 16 20 13 22 -3 3 -11 -5 -18
-17z"/>
<path d="M175 4460 c3 -5 15 -10 25 -10 10 0 24 -8 29 -17 6 -10 11 -13 11 -7
0 16 -34 44 -54 44 -9 0 -14 -4 -11 -10z"/>
<path d="M143 4448 c-15 -25 -11 -79 8 -89 37 -19 89 0 89 34 0 6 -7 1 -16
-11 -17 -24 -46 -29 -61 -9 -15 18 -26 70 -14 63 5 -4 12 -2 15 3 4 5 2 12 -3
15 -5 4 -13 1 -18 -6z"/>
<path d="M45 4380 c21 -24 26 -25 19 -6 -3 8 -13 17 -22 21 -13 5 -13 2 3 -15z"/>
<path d="M48 4308 c-10 -10 -14 -18 -9 -18 10 0 36 29 30 34 -2 1 -12 -6 -21
-16z"/>
<path d="M8208 4193 c33 -13 -11 -77 -75 -106 -13 -6 -23 -16 -23 -23 0 -10
11 -9 53 1 28 7 71 16 94 19 l41 6 -11 -29 c-23 -62 35 -112 92 -80 36 20 41
79 10 110 -22 22 -50 22 -179 3 -35 -5 -35 -5 -14 13 44 37 54 94 15 92 -10 0
-11 -2 -3 -6z m181 -135 c14 -24 14 -28 -3 -47 -50 -55 -118 8 -73 67 17 21
60 10 76 -20z"/>
<path d="M5430 4156 c0 -3 25 -38 55 -78 l55 -73 -30 -6 c-36 -8 -59 -34 -60
-67 0 -29 42 -72 70 -72 25 0 70 42 70 65 0 21 -25 70 -66 128 -35 49 -34 54
12 37 15 -6 35 -8 44 -5 23 7 34 35 20 49 -7 7 -10 3 -10 -12 0 -16 -6 -22
-22 -22 -27 0 -103 33 -112 49 -7 11 -26 16 -26 7z m121 -186 c36 -20 12 -90
-32 -90 -24 0 -49 27 -49 54 0 41 38 58 81 36z"/>
<path d="M853 3843 c40 -10 4 -66 -70 -108 -45 -26 -32 -35 30 -20 28 7 68 15
88 18 l36 5 -4 -42 c-5 -37 -2 -46 18 -60 49 -34 109 -8 109 47 -1 73 -52 89
-203 60 l-28 -5 26 26 c34 34 35 87 3 85 -17 -1 -19 -2 -5 -6z m181 -125 c20
-28 20 -43 0 -62 -24 -24 -61 -20 -80 9 -15 23 -15 27 0 50 21 32 59 33 80 3z"/>
<path d="M12450 3710 c-8 -5 -10 -10 -5 -10 6 0 17 5 25 10 8 5 11 10 5 10 -5
0 -17 -5 -25 -10z"/>
<path d="M12330 3660 c-8 -5 -10 -10 -5 -10 6 0 17 5 25 10 8 5 11 10 5 10 -5
0 -17 -5 -25 -10z"/>
<path d="M12260 3630 c-8 -5 -10 -10 -5 -10 6 0 17 5 25 10 8 5 11 10 5 10 -5
0 -17 -5 -25 -10z"/>
<path d="M11040 3510 c0 -5 7 -10 15 -10 34 0 12 -53 -48 -117 -40 -42 -23
-42 63 2 38 19 74 35 80 35 5 0 10 -15 10 -34 0 -25 7 -39 22 -50 30 -21 50
-20 82 5 36 28 33 73 -7 103 l-28 21 -72 -26 c-40 -15 -81 -30 -91 -35 -19 -7
-19 -7 -3 16 22 31 22 86 1 94 -21 8 -24 8 -24 -4z m218 -82 c17 -17 15 -63
-2 -77 -46 -38 -111 25 -71 69 20 22 55 26 73 8z"/>
<path d="M4831 3299 c-74 -13 -117 -35 -141 -74 -47 -76 -76 -368 -67 -675 6
-207 17 -290 44 -345 24 -47 87 -103 129 -114 22 -5 127 -15 234 -21 331 -18
744 -59 877 -85 92 -19 176 -19 212 0 16 8 40 34 53 57 53 91 71 183 88 443 6
88 15 212 22 276 17 176 3 213 -156 389 -42 47 -76 88 -76 92 0 4 -16 15 -37
23 -31 13 -60 14 -217 4 -204 -13 -330 -8 -591 21 -191 21 -286 23 -374 9z
m384 -44 c160 -17 498 -20 628 -5 121 14 153 4 208 -63 24 -28 74 -85 112
-125 38 -41 67 -76 64 -78 -3 -3 -24 0 -48 5 -24 5 -143 12 -264 15 -259 6
-639 38 -813 67 -145 25 -264 23 -307 -5 -44 -29 -62 -87 -70 -226 -4 -69 -15
-219 -26 -334 -10 -115 -19 -216 -19 -225 0 -8 -2 -12 -5 -9 -12 12 -25 201
-26 363 -1 161 22 439 42 515 11 44 54 87 105 105 52 19 242 19 419 0z m-50
-223 c246 -30 542 -51 760 -56 300 -7 342 -29 331 -176 -4 -41 -13 -163 -21
-270 -17 -229 -27 -295 -60 -399 -38 -120 -80 -147 -195 -125 -173 33 -653 79
-952 93 -305 13 -326 30 -314 241 3 63 10 153 16 200 5 47 14 155 20 240 11
184 20 220 62 256 30 25 37 26 108 21 41 -3 152 -14 245 -25z"/>
<path d="M5945 3230 c29 -6 50 -19 79 -51 27 -31 32 -34 17 -12 -32 48 -69 73
-105 72 -29 -1 -28 -2 9 -9z"/>
<path d="M6071 3113 c7 -12 15 -20 18 -17 3 2 -3 12 -13 22 -17 16 -18 16 -5
-5z"/>
<path d="M5700 2880 c-15 -5 1 -6 40 -3 36 3 67 7 69 9 8 7 -84 2 -109 -6z"/>
<path d="M5588 2840 c-20 -11 -39 -24 -43 -29 -4 -8 77 32 94 46 13 10 -19 -1
-51 -17z"/>
<path d="M5705 2847 c-274 -69 -374 -367 -193 -573 104 -118 291 -167 415
-109 241 112 271 457 55 622 -73 55 -192 81 -277 60z m221 -47 c76 -37 131
-100 164 -187 29 -76 24 -195 -10 -266 -75 -157 -236 -229 -385 -173 -161 61
-257 187 -256 338 0 140 87 254 234 309 77 29 168 21 253 -21z"/>
<path d="M5780 2790 c0 -13 11 -13 30 0 12 8 11 10 -7 10 -13 0 -23 -4 -23
-10z"/>
<path d="M5866 2783 c-3 -4 13 -15 37 -25 23 -11 59 -36 80 -56 40 -39 50 -32
16 12 -28 35 -119 83 -133 69z"/>
<path d="M5733 2623 c-12 -2 -33 -15 -47 -28 -49 -46 -26 -143 41 -171 46 -20
86 -10 118 28 67 79 -7 192 -112 171z m94 -37 c22 -19 28 -32 28 -66 0 -73
-67 -110 -135 -75 -31 16 -55 72 -45 105 18 57 103 78 152 36z"/>
<path d="M5690 2515 c0 -8 4 -15 10 -15 5 0 7 7 4 15 -4 8 -8 15 -10 15 -2 0
-4 -7 -4 -15z"/>
<path d="M5710 2472 c0 -19 37 -32 69 -26 48 10 49 25 2 18 -27 -4 -46 -2 -56
6 -10 8 -15 9 -15 2z"/>
<path d="M5480 2446 c0 -20 11 -46 19 -46 4 0 6 14 3 30 -4 30 -22 43 -22 16z"/>
<path d="M5520 2353 c0 -32 153 -150 182 -140 7 2 -7 14 -32 26 -25 13 -69 46
-97 74 -29 28 -53 46 -53 40z"/>
<path d="M5911 2856 c10 -9 69 -36 69 -32 0 6 -55 36 -66 36 -4 0 -5 -2 -3 -4z"/>
<path d="M5990 2816 c0 -2 8 -10 18 -17 15 -13 16 -12 3 4 -13 16 -21 21 -21
13z"/>
<path d="M5446 2791 c-4 -5 2 -7 13 -4 26 7 37 -16 17 -35 -15 -15 -18 -15
-26 -2 -6 9 -10 10 -10 3 0 -28 25 -23 59 13 20 21 28 32 18 24 -14 -10 -21
-10 -29 -2 -14 14 -35 15 -42 3z"/>
<path d="M6073 2732 c20 -29 39 -62 42 -73 4 -11 9 -18 12 -16 2 3 -3 19 -12
37 -15 30 -15 33 1 51 14 15 15 22 5 32 -10 9 -11 9 -6 -4 3 -9 0 -21 -8 -28
-11 -9 -17 -8 -28 5 -11 13 -10 17 2 26 12 8 11 9 -2 5 -9 -3 -22 0 -29 6 -7
7 3 -12 23 -41z"/>
<path d="M5028 2763 c12 -2 32 -2 45 0 12 2 2 4 -23 4 -25 0 -35 -2 -22 -4z"/>
<path d="M4900 2732 c0 -15 -6 -34 -12 -42 -7 -8 5 1 27 20 32 27 37 36 25 42
-30 13 -40 8 -40 -20z m30 9 c0 -6 -4 -13 -10 -16 -5 -3 -10 1 -10 9 0 9 5 16
10 16 6 0 10 -4 10 -9z"/>
<path d="M5120 2750 c8 -5 20 -10 25 -10 6 0 3 5 -5 10 -8 5 -19 10 -25 10 -5
0 -3 -5 5 -10z"/>
<path d="M4987 2726 c-74 -27 -117 -88 -117 -165 0 -99 76 -181 169 -181 54 0
80 12 119 51 61 63 75 166 32 237 -35 58 -131 85 -203 58z m144 -29 c66 -43
86 -124 50 -202 -36 -79 -113 -119 -185 -95 -40 13 -93 68 -102 106 -10 41 1
119 22 147 49 66 151 87 215 44z"/>
<path d="M5060 2681 c0 -6 8 -11 19 -11 10 0 30 -10 45 -21 34 -27 44 -20 13
9 -26 24 -77 40 -77 23z"/>
<path d="M5008 2673 c7 -3 16 -2 19 1 4 3 -2 6 -13 5 -11 0 -14 -3 -6 -6z"/>
<path d="M5002 2628 c-7 -7 -12 -26 -12 -43 0 -40 16 -55 57 -55 49 0 72 59
37 94 -18 19 -65 21 -82 4z m72 -20 c13 -19 14 -25 2 -43 -18 -26 -40 -30 -60
-10 -20 21 -20 39 0 59 21 22 40 20 58 -6z"/>
<path d="M5035 2600 c28 -12 37 -12 30 0 -3 6 -16 10 -28 9 -21 0 -21 -1 -2
-9z"/>
<path d="M4940 2482 c0 -18 38 -52 57 -52 9 0 13 3 8 8 -6 4 -22 18 -37 31
-16 14 -28 19 -28 13z"/>
<path d="M5160 2736 c0 -2 8 -10 18 -17 15 -13 16 -12 3 4 -13 16 -21 21 -21
13z"/>
<path d="M5228 2713 c7 -3 16 -2 19 1 4 3 -2 6 -13 5 -11 0 -14 -3 -6 -6z"/>
<path d="M5200 2707 c0 -4 9 -21 21 -39 11 -18 19 -26 16 -18 -2 8 3 24 12 35
15 19 15 19 -3 5 -16 -13 -20 -12 -32 5 -8 10 -14 16 -14 12z"/>
<path d="M5420 2669 c-7 -11 -10 -23 -7 -25 2 -2 9 7 15 21 14 30 7 33 -8 4z"/>
<path d="M4856 2635 c-3 -9 -6 -22 -5 -28 0 -7 5 -1 10 12 5 13 8 26 5 28 -2
2 -6 -3 -10 -12z"/>
<path d="M5242 2577 c-1 -32 -9 -74 -17 -95 -13 -32 -13 -35 0 -18 19 25 27
71 22 126 -3 42 -4 41 -5 -13z"/>
<path d="M5392 2580 c0 -14 2 -19 5 -12 2 6 2 18 0 25 -3 6 -5 1 -5 -13z"/>
<path d="M6141 2584 c0 -11 3 -14 6 -6 3 7 2 16 -1 19 -3 4 -6 -2 -5 -13z"/>
<path d="M4843 2555 c0 -22 2 -30 4 -17 2 12 2 30 0 40 -3 9 -5 -1 -4 -23z"/>
<path d="M6153 2525 c0 -22 2 -30 4 -17 2 12 2 30 0 40 -3 9 -5 -1 -4 -23z"/>
<path d="M5383 2510 c0 -25 2 -35 4 -22 2 12 2 32 0 45 -2 12 -4 2 -4 -23z"/>
<path d="M4836 2481 c-22 -24 -13 -41 18 -39 17 2 22 7 18 17 -4 10 -7 11 -10
3 -4 -14 -32 -16 -32 -2 0 5 8 13 17 19 10 5 15 12 12 15 -3 4 -14 -3 -23 -13z"/>
<path d="M6153 2445 c0 -22 2 -30 4 -17 2 12 2 30 0 40 -3 9 -5 -1 -4 -23z"/>
<path d="M5392 2440 c0 -14 2 -19 5 -12 2 6 2 18 0 25 -3 6 -5 1 -5 -13z"/>
<path d="M5189 2424 c-7 -8 -33 -26 -58 -39 -25 -13 -41 -24 -36 -24 6 -1 23
6 39 14 32 17 53 11 35 -11 -8 -10 -8 -14 0 -14 11 0 15 13 12 38 -1 8 5 23
15 33 9 10 15 19 12 19 -3 0 -11 -7 -19 -16z"/>
<path d="M5404 2390 c4 -17 -1 -32 -16 -47 -17 -19 -19 -25 -8 -38 7 -8 17
-15 23 -15 6 0 2 6 -9 14 -18 14 -18 15 -1 33 18 17 19 17 33 -1 11 -16 11
-22 1 -28 -9 -6 -9 -8 1 -8 6 0 38 -26 70 -58 56 -56 166 -122 201 -122 9 0
-9 11 -40 23 -110 46 -185 116 -235 219 -14 29 -23 42 -20 28z"/>
<path d="M6141 2390 c-2 -33 -53 -123 -98 -172 l-47 -53 47 45 c49 46 113 158
104 182 -4 10 -6 9 -6 -2z"/>
<path d="M5023 2353 c9 -2 25 -2 35 0 9 3 1 5 -18 5 -19 0 -27 -2 -17 -5z"/>
<path d="M6011 2143 c-1 -12 -9 -24 -18 -26 -17 -4 -17 -5 0 -6 19 -1 32 21
24 41 -3 7 -6 3 -6 -9z"/>
<path d="M5942 2141 c-11 -6 -9 -9 6 -13 15 -4 19 -2 15 8 -6 16 -4 16 -21 5z"/>
<path d="M5745 2110 c17 -4 44 -8 60 -8 25 0 24 2 -10 9 -51 10 -92 10 -50 -1z"/>
<path d="M5868 2113 c7 -3 16 -2 19 1 4 3 -2 6 -13 5 -11 0 -14 -3 -6 -6z"/>
<path d="M9792 3240 c-18 -11 -60 -42 -95 -68 -34 -27 -98 -71 -142 -97 -125
-75 -190 -121 -219 -156 l-27 -32 6 -161 7 -161 29 -27 c50 -47 76 -40 301 77
110 58 221 121 246 142 71 58 77 81 63 263 -6 85 -11 162 -11 172 0 18 -78 68
-107 68 -10 0 -33 -9 -51 -20z m74 -12 c4 -7 9 -95 11 -196 3 -155 1 -188 -12
-209 -10 -14 -69 -49 -153 -90 -75 -36 -186 -93 -246 -125 -64 -36 -112 -56
-117 -51 -13 13 -27 270 -18 313 10 44 41 71 189 162 63 39 135 87 160 108 61
51 140 100 161 100 10 0 21 -5 25 -12z m54 -23 c27 -33 39 -338 15 -385 -25
-48 -98 -96 -309 -202 -176 -89 -202 -99 -229 -91 -30 8 -25 12 124 90 84 45
188 98 230 118 42 20 92 49 110 65 l34 28 -3 196 c-4 193 0 215 28 181z"/>
<path d="M9650 3052 c-66 -66 -76 -206 -17 -247 50 -35 133 -3 169 66 25 49
34 130 18 169 -16 38 -37 50 -91 50 -35 0 -47 -6 -79 -38z m141 2 c53 -48 11
-198 -67 -240 -27 -15 -36 -15 -62 -5 -39 17 -56 58 -49 121 8 64 30 106 70
131 35 22 79 19 108 -7z"/>
<path d="M9728 2994 c28 -19 28 -53 1 -88 -11 -14 -16 -26 -10 -26 13 0 41 53
41 79 0 21 -25 51 -43 51 -6 0 -1 -7 11 -16z"/>
<path d="M9679 2983 c-13 -16 -12 -17 4 -4 16 13 21 21 13 21 -2 0 -10 -8 -17
-17z"/>
<path d="M9661 2944 c0 -11 3 -14 6 -6 3 7 2 16 -1 19 -3 4 -6 -2 -5 -13z"/>
<path d="M9660 2901 c0 -10 19 -25 25 -20 1 2 -3 10 -11 17 -8 7 -14 8 -14 3z"/>
<path d="M9443 2947 l-83 -52 0 -147 c0 -105 3 -147 12 -150 7 -3 41 13 77 34
36 21 71 38 78 38 10 0 13 39 13 165 0 91 -3 165 -7 164 -5 0 -45 -24 -90 -52z
m87 -91 c0 -167 1 -165 -81 -207 l-69 -36 -1 123 c-1 68 -2 129 -3 136 -1 10
129 98 146 98 5 0 8 -51 8 -114z"/>
<path d="M9444 2795 c0 -49 1 -71 3 -48 2 23 2 64 0 90 -2 26 -3 8 -3 -42z"/>
<path d="M9483 2800 c0 -36 2 -50 4 -32 2 17 2 47 0 65 -2 17 -4 3 -4 -33z"/>
<path d="M9403 2800 c0 -25 2 -35 4 -22 2 12 2 32 0 45 -2 12 -4 2 -4 -23z"/>
<path d="M7652 3156 c-19 -16 -53 -77 -97 -173 -180 -391 -587 -1198 -770
-1528 -114 -206 -166 -311 -172 -349 -8 -51 44 -152 116 -226 59 -60 139 -106
303 -174 46 -19 122 -52 170 -74 47 -22 142 -61 209 -87 129 -49 179 -54 216
-23 34 27 86 123 164 300 44 101 102 222 129 270 42 74 424 969 601 1408 69
171 75 223 33 285 -39 58 -56 68 -259 159 -104 46 -239 108 -299 136 -128 60
-242 100 -284 100 -18 0 -43 -10 -60 -24z m323 -95 c110 -49 263 -115 339
-147 211 -89 264 -149 238 -264 -10 -43 -256 -646 -474 -1160 -38 -91 -111
-246 -162 -345 -52 -99 -126 -257 -166 -350 -85 -198 -116 -249 -164 -265 -36
-11 -67 -4 -191 48 -27 12 -115 47 -195 78 -233 90 -359 155 -429 220 -93 86
-95 101 -9 54 40 -21 147 -69 238 -105 91 -37 237 -98 324 -137 214 -95 253
-98 289 -26 51 102 403 880 727 1603 184 413 200 450 200 471 0 17 -24 34
-115 82 -63 33 -145 72 -183 87 -37 14 -82 32 -100 40 -61 28 -66 24 -122 -92
-29 -60 -114 -250 -190 -423 -76 -173 -224 -506 -329 -739 -106 -233 -188
-428 -184 -431 4 -4 109 -47 233 -95 124 -48 226 -88 228 -90 2 -1 -26 -65
-61 -141 -35 -77 -73 -161 -83 -187 -10 -26 -32 -64 -48 -84 -27 -32 -32 -35
-68 -29 -22 4 -88 29 -147 56 -165 75 -457 204 -546 240 -214 89 -238 148
-132 320 169 273 822 1557 908 1787 36 94 75 127 139 117 19 -3 125 -45 235
-93z m196 -152 c108 -39 309 -137 315 -154 3 -7 -2 -27 -10 -43 l-15 -30 -105
46 c-62 27 -106 52 -109 62 -2 9 -41 32 -93 54 -49 21 -90 40 -92 41 -2 2 19
55 23 55 1 0 39 -14 86 -31z m-36 -82 c77 -31 94 -48 77 -75 -7 -10 -28 -6
-98 19 -49 18 -90 33 -92 34 -5 4 21 55 27 55 3 0 42 -15 86 -33z m-18 -79
c92 -30 96 -31 109 -13 13 17 19 16 116 -25 57 -24 105 -45 107 -47 7 -5 -28
-73 -38 -73 -5 0 -49 15 -98 33 -48 19 -141 51 -206 72 -91 29 -117 41 -113
52 3 8 6 19 6 24 0 14 14 11 117 -23z m365 -115 c-22 -49 -157 -349 -300 -668
-379 -847 -385 -860 -389 -864 -37 -48 255 622 607 1394 45 99 89 196 98 215
8 19 17 29 19 23 3 -7 -13 -52 -35 -100z m-134 -44 c28 -12 52 -25 52 -30 0
-6 -7 -25 -15 -44 l-14 -35 -58 26 c-32 14 -78 33 -102 42 -25 10 -47 26 -51
38 -6 15 -37 33 -104 59 -81 32 -94 41 -86 55 8 15 25 11 167 -37 87 -29 182
-63 211 -74z m-290 32 c65 -27 80 -43 64 -69 -6 -9 -29 -5 -97 18 -48 16 -90
32 -92 34 -2 2 2 15 8 30 14 30 13 30 117 -13z m-48 -71 c98 -34 116 -36 128
-14 8 14 21 11 111 -26 56 -24 103 -46 106 -49 2 -4 -5 -26 -15 -48 l-18 -42
-103 44 c-65 28 -106 51 -110 63 -4 11 -42 33 -98 57 -50 21 -91 39 -91 41 0
6 1 6 90 -26z m-7 -36 c48 -20 87 -40 87 -43 0 -4 -6 -15 -12 -24 -12 -16 -19
-15 -93 14 -44 17 -84 34 -88 39 -10 9 0 50 11 50 4 0 46 -16 95 -36z m-37
-69 c100 -39 112 -41 128 -20 9 12 26 8 111 -27 55 -22 101 -42 102 -43 6 -4
-31 -85 -39 -85 -27 0 -193 81 -199 97 -4 12 -42 33 -103 58 -53 21 -96 42
-96 47 0 11 -4 12 96 -27z m10 -47 c70 -29 72 -31 62 -54 -13 -27 -11 -27
-125 13 -40 14 -73 28 -73 32 0 3 3 16 6 29 8 28 21 26 130 -20z m-43 -70 c96
-32 99 -33 113 -14 13 19 17 18 114 -23 55 -24 100 -45 100 -47 0 -7 -32 -84
-35 -84 -2 0 -24 9 -50 20 -25 11 -118 45 -206 76 -87 31 -159 60 -159 64 0
14 12 40 19 40 3 0 50 -14 104 -32z m32 -92 c275 -99 261 -89 227 -152 l-17
-32 -107 46 c-72 30 -108 51 -108 61 0 11 -30 28 -86 51 -47 19 -88 38 -90 42
-7 10 7 38 20 38 6 0 79 -24 161 -54z m-109 -41 c61 -26 78 -38 76 -52 -2 -10
-7 -21 -10 -25 -7 -6 -150 47 -165 62 -10 9 0 50 12 50 4 0 43 -16 87 -35z
m-29 -70 c100 -40 102 -40 117 -19 11 14 22 12 101 -20 50 -20 96 -40 104 -45
15 -10 10 -45 -11 -74 -13 -18 -19 -16 -116 24 -72 29 -102 47 -102 59 0 11
-28 28 -95 55 -52 21 -95 42 -95 47 0 12 2 11 97 -27z m-16 -36 c76 -31 86
-40 73 -73 -5 -13 -18 -11 -92 16 -48 17 -88 32 -90 33 -7 6 11 55 20 55 5 0
45 -14 89 -31z m-23 -81 c88 -30 95 -31 107 -15 7 9 16 17 20 17 8 0 197 -79
203 -85 2 -2 -4 -17 -12 -34 l-16 -30 -98 36 c-53 19 -144 51 -202 70 -113 38
-126 45 -116 62 10 15 8 15 114 -21z m62 -83 c170 -59 230 -82 230 -91 0 -5
-30 -66 -36 -73 -8 -9 -204 83 -204 96 0 14 -88 58 -162 82 -34 11 -37 15 -27
33 7 13 16 17 27 13 9 -4 87 -31 172 -60z m-124 -26 c41 -17 76 -35 79 -40 3
-5 1 -17 -5 -28 -10 -19 -12 -19 -97 10 -47 16 -88 30 -90 33 -7 7 17 56 27
56 6 0 45 -14 86 -31z m-19 -81 c89 -31 95 -32 108 -15 12 17 18 16 101 -18
126 -50 121 -46 99 -95 -13 -29 -23 -39 -34 -35 -99 36 -191 82 -191 95 0 10
-33 28 -100 54 -55 21 -100 41 -100 42 0 9 30 2 117 -28z m-29 -32 c46 -18 83
-38 83 -42 0 -43 -7 -45 -73 -20 -124 47 -127 49 -117 74 4 12 12 22 16 22 4
0 45 -15 91 -34z m-27 -71 c105 -39 119 -41 119 -20 0 8 4 15 10 15 11 0 189
-76 197 -84 6 -5 -14 -64 -27 -78 -9 -12 -200 73 -200 89 0 14 -88 58 -162 82
-21 7 -38 17 -38 22 0 12 -5 13 101 -26z m-11 -37 c78 -32 91 -46 72 -75 -7
-11 -63 5 -189 52 -17 6 4 55 24 55 7 0 49 -15 93 -32z m-21 -78 c90 -32 94
-33 107 -15 15 20 22 18 171 -47 l41 -18 -15 -40 c-9 -22 -21 -40 -28 -40 -6
0 -38 11 -71 24 -32 13 -120 45 -194 71 -74 26 -139 50 -143 55 -12 11 12 53
26 47 7 -2 54 -19 106 -37z m193 -152 c64 -24 78 -33 73 -46 -4 -10 -12 -30
-17 -45 -12 -33 -6 -34 -135 20 -62 25 -93 43 -93 54 0 11 -31 28 -95 54 -52
21 -95 40 -95 42 0 3 5 13 10 23 10 18 16 17 142 -26 72 -25 167 -59 210 -76z
m-281 22 c88 -37 93 -41 76 -64 -13 -18 -17 -17 -100 14 -48 18 -87 35 -87 37
0 11 22 43 29 43 5 0 41 -14 82 -30z m-20 -76 c83 -31 95 -33 105 -20 6 9 16
16 22 16 11 0 191 -76 199 -84 3 -3 -26 -86 -31 -86 -1 0 -48 20 -106 45 -68
29 -104 49 -102 58 1 9 -32 28 -98 54 -55 22 -97 43 -93 46 8 9 -1 12 104 -29z
m-18 -36 c77 -32 85 -40 67 -68 -8 -12 -21 -10 -95 15 -48 16 -88 33 -91 37
-7 11 15 48 29 48 7 0 47 -14 90 -32z m-51 -68 c91 -33 123 -37 135 -16 7 12
25 8 102 -24 52 -21 98 -43 104 -49 13 -13 -21 -94 -37 -87 -6 2 -98 38 -205
80 -107 42 -195 77 -197 79 -4 4 7 47 12 47 2 0 40 -13 86 -30z"/>
<path d="M7477 2454 c-20 -41 -17 -50 17 -56 21 -4 27 1 41 35 13 33 14 42 3
48 -26 17 -45 8 -61 -27z m51 5 c4 -23 -25 -56 -38 -43 -8 8 -8 18 1 38 13 27
32 30 37 5z"/>
<path d="M7425 2340 c-20 -45 -20 -46 16 -55 21 -5 27 -2 37 20 17 37 15 53
-7 65 -27 14 -26 15 -46 -30z m50 10 c3 -5 1 -20 -6 -32 -16 -30 -14 -29 -32
-22 -15 5 -15 9 -1 35 15 30 28 36 39 19z"/>
<path d="M7375 2230 c-21 -40 -19 -57 8 -64 33 -9 32 -9 46 31 12 33 12 38 -5
50 -26 19 -32 17 -49 -17z m48 4 c3 -3 1 -18 -4 -34 -8 -21 -15 -27 -30 -23
-22 6 -22 5 -7 38 11 24 28 32 41 19z"/>
<path d="M7315 2099 c-19 -36 -15 -54 14 -62 36 -9 69 74 35 87 -27 10 -33 7
-49 -25z m55 5 c0 -14 -26 -54 -35 -54 -21 0 -24 12 -10 41 10 18 20 26 30 23
8 -4 15 -8 15 -10z"/>
<path d="M7205 1958 c-27 -15 -35 -28 -35 -59 0 -51 80 -106 119 -82 9 5 23
22 31 36 13 24 13 30 -4 61 -26 49 -71 67 -111 44z m73 -21 c6 -5 12 -22 12
-38 0 -47 -61 -66 -95 -29 -45 50 28 110 83 67z m42 -62 c0 -18 -35 -55 -52
-55 -7 0 -20 5 -28 10 -12 8 -11 10 7 10 12 0 30 11 40 25 21 28 33 32 33 10z"/>
<path d="M7106 1775 c-34 -35 -25 -85 23 -122 23 -17 77 -16 95 3 24 24 20 77
-9 108 -28 30 -84 36 -109 11z m86 -12 c10 -9 18 -24 18 -33 0 -50 -69 -71
-101 -31 -41 51 34 109 83 64z m38 -57 c0 -32 -25 -56 -58 -55 -16 0 -21 3
-12 6 23 9 60 45 60 60 0 7 2 13 5 13 3 0 5 -11 5 -24z"/>
<path d="M7022 1600 c-50 -20 -48 -88 4 -129 33 -26 65 -27 94 -3 41 33 19
111 -36 132 -30 12 -32 12 -62 0z m76 -22 c32 -26 -1 -88 -48 -88 -33 0 -50
17 -50 51 0 49 56 70 98 37z m16 -99 c-18 -20 -49 -25 -59 -9 -3 6 2 10 11 10
22 0 54 28 55 49 1 9 4 6 6 -7 3 -14 -3 -32 -13 -43z"/>
<path d="M6889 1394 c-5 -15 -45 -89 -89 -165 -44 -76 -80 -141 -80 -144 0 -8
201 -99 205 -93 50 81 165 309 165 329 0 8 -114 70 -166 89 -21 8 -26 6 -35
-16z m111 -34 c78 -39 79 -40 69 -68 -15 -44 -146 -276 -157 -280 -15 -5 -172
69 -172 80 0 6 31 65 69 131 38 67 75 134 82 150 7 15 16 27 21 27 5 0 44 -18
88 -40z"/>
<path d="M6917 1298 c-13 -24 -43 -74 -65 -113 -22 -38 -38 -72 -36 -74 6 -6
6 -6 73 113 34 60 60 111 57 113 -2 3 -15 -15 -29 -39z"/>
<path d="M6967 1275 c-10 -21 -16 -40 -13 -42 7 -7 38 56 34 68 -2 6 -11 -6
-21 -26z"/>
<path d="M7345 1039 c-4 -11 -5 -22 -3 -25 3 -2 47 -22 99 -43 l94 -40 13 25
c17 32 7 45 -61 79 -65 32 -133 34 -142 4z m152 -24 c65 -39 55 -58 -13 -24
-31 16 -71 31 -90 35 -19 3 -34 11 -34 16 0 18 90 0 137 -27z m-28 -25 c24
-11 42 -23 39 -26 -5 -4 -107 32 -117 42 -12 12 40 1 78 -16z"/>
<path d="M7312 934 c-12 -8 -22 -21 -22 -27 0 -7 43 -29 95 -51 78 -31 98 -36
110 -26 43 36 -21 89 -136 114 -15 3 -34 -1 -47 -10z m145 -39 c86 -51 22 -68
-77 -21 -35 17 -45 24 -26 21 26 -5 48 -14 111 -44 6 -2 4 3 -3 12 -15 18 -94
47 -129 47 -13 0 -23 5 -23 11 0 20 98 2 147 -26z"/>
<path d="M320 2874 c-142 -19 -290 -60 -290 -82 0 -10 6 -12 22 -8 193 56 344
74 493 57 126 -14 194 -31 304 -76 266 -109 452 -275 806 -720 267 -336 418
-489 644 -655 l74 -54 -97 -93 c-105 -99 -231 -190 -315 -224 -28 -12 -50 -24
-47 -26 8 -9 134 57 203 106 40 28 115 92 167 142 52 50 100 88 106 84 6 -3 8
-11 5 -16 -3 -5 1 -6 9 -3 8 3 28 -3 43 -14 41 -28 243 -129 277 -138 48 -12
27 13 -39 45 l-60 29 78 1 c44 1 140 14 224 31 200 41 295 37 354 -16 52 -47
6 -178 -125 -351 -157 -209 -348 -353 -796 -604 -230 -128 -386 -199 -514
-234 -86 -23 -114 -27 -200 -23 -128 5 -189 29 -212 83 -20 49 -6 96 53 177
49 67 173 212 173 203 0 -3 -13 -35 -30 -72 -33 -72 -35 -83 -19 -83 14 0 81
144 118 256 17 50 38 136 47 190 9 54 22 102 28 106 8 5 7 8 -1 8 -9 0 -13 18
-13 54 0 194 -102 446 -248 613 l-49 56 13 45 c21 69 17 176 -9 253 -36 105
-85 177 -197 289 -91 91 -118 112 -200 153 -79 40 -107 49 -170 54 -67 6 -82
11 -147 54 -156 102 -352 156 -528 145 -130 -8 -219 -27 -223 -48 -3 -14 2
-14 50 -1 29 8 105 17 168 20 l115 6 -44 -34 c-37 -29 -137 -173 -153 -221 -6
-17 -57 14 -71 43 -18 34 -61 34 -65 -1 -2 -25 -2 -25 10 -3 9 15 18 19 27 14
11 -7 9 -18 -13 -56 -14 -27 -23 -51 -20 -54 4 -3 9 0 11 6 3 9 15 7 44 -7
l39 -20 -50 -100 c-45 -90 -49 -104 -43 -146 8 -58 43 -101 89 -110 l34 -6
-18 -30 c-16 -28 -20 -30 -64 -25 l-47 4 24 -29 c34 -41 34 -100 0 -134 -30
-30 -32 -38 -6 -25 15 9 62 -10 243 -98 243 -118 300 -141 354 -141 28 0 37 5
46 26 12 25 10 29 -31 65 -47 42 -166 103 -401 204 -140 60 -180 83 -180 106
0 11 65 0 134 -23 32 -10 143 -63 245 -116 196 -102 282 -168 297 -225 14 -57
-56 -91 -151 -74 -27 4 -120 42 -205 82 -166 79 -357 165 -365 165 -3 0 -5 -4
-5 -9 0 -5 25 -19 55 -31 51 -21 68 -41 45 -55 -5 -3 -27 3 -49 15 -45 22 -51
24 -51 12 0 -5 51 -33 113 -62 249 -120 667 -339 739 -388 161 -109 248 -230
248 -346 0 -105 -64 -212 -154 -258 -31 -16 -53 -19 -102 -16 -81 5 -137 41
-173 113 -23 45 -26 65 -31 201 -6 180 -8 185 -118 249 -93 55 -372 194 -460
229 -113 45 -60 5 65 -49 97 -42 348 -167 361 -180 6 -6 -63 -135 -72 -135 -6
0 -81 34 -166 74 -202 97 -252 118 -248 106 3 -9 245 -127 292 -143 5 -2 7
-11 3 -20 -5 -14 -16 -12 -84 20 -136 62 -215 93 -211 82 2 -6 48 -30 103 -54
55 -23 141 -61 190 -84 l90 -42 -52 -49 c-86 -79 -172 -88 -281 -30 -29 16
-52 23 -50 17 2 -7 29 -25 60 -41 72 -36 153 -39 213 -9 74 39 159 140 209
251 22 48 34 51 73 18 l28 -24 -23 -49 c-93 -193 -205 -291 -342 -300 -59 -5
-151 10 -202 32 -36 15 -18 -25 19 -44 158 -80 408 -93 553 -30 42 19 46 19
55 3 6 -9 21 -30 34 -46 19 -23 21 -32 11 -38 -49 -30 -394 -30 -540 1 -149
31 -158 32 -140 21 31 -20 220 -54 340 -60 l125 -7 -100 -8 c-104 -8 -202 1
-308 29 -62 16 -73 14 -64 -10 4 -9 40 -20 102 -31 145 -26 395 -17 525 19
112 32 99 31 177 9 58 -16 64 -16 117 0 67 21 138 87 168 155 12 26 23 78 26
117 3 47 11 79 24 97 32 46 105 207 137 305 17 50 38 139 47 197 17 104 17
106 64 155 58 59 59 59 67 -104 27 -539 -449 -1064 -1036 -1145 -90 -12 -253
-1 -352 25 -60 16 -82 14 -63 -4 39 -38 337 -64 467 -41 159 28 325 95 470
189 85 56 242 202 307 286 107 138 184 301 216 457 19 93 43 128 85 128 43 0
117 -40 128 -69 43 -108 62 -307 42 -435 -7 -42 -23 -108 -36 -148 -20 -65
-32 -82 -105 -158 -152 -158 -214 -257 -214 -342 0 -59 23 -93 85 -126 42 -22
52 -23 199 -20 174 4 181 6 405 113 400 192 748 409 938 584 149 139 307 387
307 484 0 123 -128 154 -416 102 -162 -30 -278 -33 -357 -10 -68 20 -254 141
-387 253 -135 113 -285 273 -425 453 -275 354 -427 520 -588 640 -229 171
-429 246 -677 253 -69 3 -141 2 -160 0z m249 -329 c74 -25 185 -81 229 -116
l23 -18 -33 -9 c-27 -7 -45 -3 -106 25 -103 48 -204 69 -260 54 -80 -22 -165
-127 -237 -293 -23 -52 -34 -68 -50 -68 -11 0 -31 -7 -43 -16 -12 -8 -22 -12
-22 -9 0 3 40 88 89 188 92 187 132 242 206 282 38 21 105 14 204 -20z m71
-116 l55 -24 -75 -6 c-42 -4 -97 -16 -123 -27 -64 -28 -133 -104 -186 -202
-34 -64 -47 -80 -60 -74 -9 4 -28 9 -43 12 -16 2 -28 10 -28 17 0 27 101 216
137 256 57 63 102 81 193 76 49 -3 94 -13 130 -28z m408 -62 c87 -35 168 -93
262 -187 136 -135 196 -272 188 -424 -7 -134 -64 -234 -161 -280 -132 -62
-246 -42 -557 100 -52 24 -87 38 -77 31 52 -34 52 -34 38 -51 -12 -14 -16 -13
-45 8 -34 25 -267 157 -356 201 -66 33 -64 31 -55 45 4 7 54 -14 143 -60 171
-88 155 -76 -63 47 -93 52 -174 99 -178 103 -4 4 3 15 18 24 25 16 27 15 178
-67 530 -292 639 -341 787 -353 65 -6 83 -3 128 16 59 26 106 73 135 139 39
88 2 231 -100 385 -121 182 -292 287 -473 290 -65 1 -81 -3 -122 -27 -111 -65
-139 -218 -58 -311 65 -74 183 -97 365 -73 90 12 117 12 155 2 25 -7 58 -16
73 -19 36 -8 87 -87 87 -133 0 -42 -41 -124 -75 -152 -90 -70 -277 -11 -690
219 -82 46 -193 102 -244 125 -88 39 -96 45 -113 84 l-18 42 153 -79 c83 -43
251 -131 372 -195 261 -137 325 -161 411 -154 67 5 105 24 122 63 18 39 14 70
-14 103 -40 47 -83 54 -253 41 -230 -19 -327 11 -406 124 -36 52 -40 64 -43
130 -4 80 11 124 63 179 85 90 285 120 423 64z m-348 15 c0 -12 -37 -29 -94
-42 -27 -6 -63 -18 -79 -27 -49 -25 -132 -109 -178 -179 -23 -35 -45 -64 -49
-64 -20 0 -16 19 17 82 67 128 162 211 260 228 66 11 123 12 123 2z m-579 -49
c30 -18 34 -29 21 -50 -5 -8 -17 -5 -44 11 -29 17 -34 25 -27 39 12 21 14 21
50 0z m464 -50 c-20 -27 -57 -70 -83 -98 -26 -27 -60 -75 -77 -106 l-29 -57
-33 16 c-18 9 -33 21 -33 27 0 20 95 149 136 184 33 30 126 81 146 81 5 0 -8
-21 -27 -47z m361 12 c12 -11 53 -47 93 -79 90 -74 178 -168 231 -246 41 -60
42 -72 6 -45 -11 8 -32 15 -48 15 -22 0 -37 13 -81 73 -72 97 -181 197 -272
250 -41 24 -71 47 -67 51 14 15 117 1 138 -19z m-123 -21 c117 -59 241 -168
315 -275 l32 -47 -41 -4 c-40 -4 -41 -3 -109 82 -92 115 -194 192 -285 214
l-30 8 28 24 c15 13 30 24 33 24 3 0 28 -12 57 -26z m278 -26 c98 -51 203
-169 273 -308 39 -76 52 -117 62 -185 8 -60 -5 -52 -31 20 -56 159 -178 319
-365 479 -36 30 -40 37 -20 31 14 -4 50 -21 81 -37z m-302 -45 c50 -24 181
-136 181 -153 0 -5 -15 -34 -32 -65 l-33 -56 -57 4 c-124 11 -208 87 -208 189
0 27 7 62 15 78 20 39 61 40 134 3z m-231 -180 c45 -88 133 -150 244 -173 l58
-11 -16 -30 -15 -30 -52 30 c-29 16 -125 69 -214 118 l-161 87 24 49 c14 26
41 66 62 89 l37 41 6 -64 c3 -36 15 -83 27 -106z m-364 46 c29 -35 33 -67 11
-108 -16 -32 -33 -41 -74 -41 -63 0 -102 65 -76 126 26 62 96 74 139 23z m830
-77 c14 -21 26 -41 26 -44 0 -8 -110 -21 -117 -14 -7 7 45 96 56 96 5 0 20
-17 35 -38z m-650 -61 c67 -33 172 -89 233 -124 62 -35 131 -72 153 -82 33
-15 39 -22 34 -39 -10 -33 -12 -33 -72 0 -464 252 -492 268 -492 286 0 10 5
18 12 18 6 0 66 -27 132 -59z m-152 -77 c37 -19 48 -28 39 -37 -8 -8 -23 -8
-59 2 -58 15 -69 25 -52 46 16 19 12 20 72 -11z m897 -47 c10 -30 23 -70 26
-90 l7 -37 -39 0 c-40 0 -143 26 -143 36 0 4 17 37 38 75 31 59 41 69 64 69
23 0 29 -7 47 -53z m86 39 c54 -23 71 -78 39 -124 -15 -22 -62 -47 -71 -39 -2
2 -12 35 -23 73 -10 38 -22 77 -25 87 -6 13 -2 17 19 17 15 0 42 -6 61 -14z
m-206 -38 c-12 -24 -28 -53 -36 -65 l-15 -22 -49 24 c-52 27 -58 38 -34 72 15
21 32 25 128 31 l27 2 -21 -42z m390 -93 c19 -57 19 -60 1 -95 -34 -67 -63
-75 -74 -22 -4 18 2 43 19 76 14 27 25 63 25 79 0 40 6 32 29 -38z m-1236 23
c29 -12 53 -22 55 -23 4 -3 -39 -75 -44 -75 -2 0 -24 10 -49 22 -33 16 -44 26
-39 38 4 8 9 25 11 38 6 27 3 27 66 0z m254 -110 c224 -103 287 -149 251 -184
-14 -14 -23 -15 -67 -4 -41 10 -383 169 -400 186 -9 9 29 74 44 74 8 0 86 -32
172 -72z m467 40 c40 -19 44 -24 34 -42 -6 -12 -12 -22 -13 -24 -3 -3 -84 35
-93 43 -7 6 9 45 18 45 5 0 30 -10 54 -22z m161 -64 c39 -13 86 -26 106 -29
29 -4 38 -11 41 -30 4 -20 1 -25 -16 -25 -34 0 -147 29 -203 51 -49 20 -51 22
-41 45 8 17 16 23 27 18 9 -4 48 -18 86 -30z m269 -16 c3 -13 6 -28 6 -35 0
-13 -52 -33 -86 -33 -20 0 -24 5 -24 30 0 22 5 30 18 30 9 0 28 7 42 14 35 19
37 19 44 -6z m-446 -76 c-2 -4 -33 -65 -69 -137 -36 -71 -68 -136 -70 -144 -4
-11 -15 -8 -51 13 l-47 27 27 45 c15 24 32 44 39 44 6 0 25 12 42 26 24 20 31
34 31 63 0 20 -7 46 -15 57 -12 18 -12 24 1 42 l15 22 50 -26 c28 -14 49 -28
47 -32z m733 -67 c22 -33 37 -60 32 -61 -4 -2 -31 -4 -59 -7 l-52 -4 -6 66
c-4 36 -9 82 -12 101 l-5 35 30 -35 c17 -19 50 -62 72 -95z m-1213 10 c107
-48 211 -89 233 -92 21 -3 39 -7 39 -9 0 -5 -42 -74 -45 -74 -3 0 -458 232
-464 236 -2 2 -1 11 3 20 8 21 3 23 234 -81z m587 20 c44 -19 112 -40 152 -47
l72 -12 7 -53 c14 -114 -21 -238 -98 -351 l-30 -44 -42 40 c-54 52 -135 110
-223 161 -40 23 -73 44 -73 46 0 10 145 295 150 295 3 0 41 -16 85 -35z m365
-51 c0 -44 -45 -229 -77 -314 -35 -94 -112 -250 -122 -250 -3 1 -16 22 -29 47
l-23 46 40 61 c74 114 85 147 89 284 l4 122 27 1 c14 0 35 4 46 9 31 13 45 11
45 -6z m317 -86 c37 -35 30 -51 -13 -33 -43 18 -78 19 -105 5 -16 -9 -19 -7
-19 14 0 48 91 57 137 14z m-999 -557 l-1 -144 -52 -23 c-104 -48 -220 -53
-374 -18 -96 22 -98 29 -8 30 160 1 255 73 370 283 l41 75 13 -30 c8 -19 12
-76 11 -173z m-224 119 c18 -18 -20 -21 -57 -5 -36 15 -44 25 -31 38 7 7 73
-18 88 -33z"/>
<path d="M106 2044 c-19 -18 -21 -55 -4 -72 31 -31 88 -4 88 42 0 20 -28 46
-50 46 -10 0 -26 -7 -34 -16z m64 -35 c0 -28 -35 -43 -54 -23 -27 26 12 75 42
51 6 -5 12 -18 12 -28z"/>
<path d="M1016 1324 c-11 -7 -16 -17 -13 -21 4 -4 15 1 24 10 22 21 14 30 -11
11z"/>
<path d="M598 823 c7 -3 16 -2 19 1 4 3 -2 6 -13 5 -11 0 -14 -3 -6 -6z"/>
<path d="M13542 2485 c-269 -281 -417 -615 -707 -1596 -122 -411 -127 -424
-250 -607 -40 -59 -43 -68 -31 -86 24 -37 94 -66 157 -66 l57 0 6 58 c3 31 8
102 11 157 6 91 15 127 100 390 98 300 114 334 172 356 32 12 78 -2 113 -34
14 -13 42 -58 63 -101 54 -112 119 -206 203 -295 69 -73 203 -191 218 -191 21
0 -2 34 -48 69 -128 99 -271 273 -345 419 -66 130 -131 374 -131 490 0 21 -5
32 -15 32 -10 0 -60 -139 -177 -495 -101 -306 -168 -495 -175 -495 -7 0 -13 3
-13 6 0 17 219 750 270 904 119 358 226 615 326 783 60 99 167 236 243 312 65
63 85 95 62 95 -5 0 -54 -47 -109 -105z m-398 -1293 c5 -8 -99 -23 -111 -17
-2 1 14 51 34 111 l37 109 17 -97 c9 -53 20 -101 23 -106z m-10 -33 c13 -6 27
-22 30 -34 3 -13 9 -31 12 -40 6 -14 1 -13 -27 4 -41 25 -96 27 -128 5 -23
-16 -23 -16 -16 7 18 59 73 83 129 58z m-367 -691 c8 -11 -3 -286 -11 -295 -1
-1 -24 9 -51 22 -29 15 -65 25 -92 25 -24 0 -43 2 -43 5 0 2 24 42 54 87 29
46 64 102 77 125 24 43 48 54 66 31z m-67 -288 c55 -28 52 -44 -7 -35 -54 8
-93 25 -114 51 -13 16 -11 17 34 11 26 -4 65 -16 87 -27z"/>
<path d="M12355 2525 c-5 -2 -31 -6 -57 -10 -37 -5 -48 -10 -48 -24 0 -18 37
-131 64 -193 15 -35 17 -36 53 -28 21 4 69 10 106 13 61 4 68 3 61 -12 -16
-38 -14 -57 6 -79 45 -47 132 -1 116 62 -11 45 -39 54 -154 47 l-103 -6 -29
60 c-16 33 -34 79 -39 102 -10 49 -5 53 74 53 l54 0 -6 -35 c-7 -45 17 -75 62
-75 39 0 65 26 65 67 0 51 -24 63 -126 62 -49 0 -93 -2 -99 -4z m201 -30 c30
-46 -9 -95 -60 -75 -21 8 -26 16 -26 44 0 56 56 76 86 31z m-238 -46 c7 -28
23 -74 37 -101 14 -27 25 -51 25 -53 0 -1 -9 -5 -21 -8 -17 -4 -24 2 -38 36
-32 75 -53 147 -47 162 12 31 33 14 44 -36z m316 -192 c13 -36 -2 -61 -38 -65
-34 -4 -56 13 -56 44 0 56 76 74 94 21z"/>
<path d="M70 2446 c0 -2 7 -6 15 -10 8 -3 15 -1 15 4 0 6 -7 10 -15 10 -8 0
-15 -2 -15 -4z"/>
<path d="M11290 2339 c-137 -44 -132 -41 -435 -243 -115 -77 -302 -199 -415
-271 -183 -116 -296 -195 -383 -267 l-27 -23 115 -370 c152 -484 264 -857 311
-1027 24 -90 42 -138 51 -138 7 0 13 2 13 5 0 30 -251 865 -426 1418 -4 14 8
10 59 -18 35 -19 71 -33 80 -30 11 5 17 -4 22 -37 17 -102 80 -190 161 -224
71 -30 174 -8 203 44 7 12 13 14 20 6 8 -7 -2 -24 -34 -58 -85 -91 -118 -193
-117 -356 1 -172 51 -362 140 -532 55 -105 145 -218 174 -218 17 0 12 9 -28
53 -153 168 -278 530 -260 752 10 133 70 264 141 311 24 16 27 15 67 -12 122
-84 293 -291 319 -386 10 -37 86 -128 107 -128 14 0 62 40 62 51 0 6 -8 8 -18
5 -25 -8 -40 11 -102 129 -28 54 -66 120 -85 145 -38 52 -174 188 -224 224
l-34 25 29 12 c60 23 167 23 240 1 282 -86 475 -422 475 -827 0 -133 -15 -205
-58 -288 -15 -28 -29 -55 -31 -59 -2 -5 3 -8 12 -8 8 0 27 20 41 43 110 188
77 599 -68 856 -54 96 -181 226 -262 269 -87 46 -42 39 51 -8 176 -88 302
-269 364 -521 27 -108 37 -300 21 -396 -13 -76 -59 -183 -93 -220 -14 -15 -17
-23 -8 -23 27 0 81 96 105 189 26 101 29 212 11 340 -48 321 -187 549 -399
652 -133 64 -279 73 -418 23 -38 -13 -43 -12 -71 7 -27 20 -29 24 -21 63 14
69 6 171 -18 226 -25 59 -91 122 -144 140 -80 26 -180 -11 -215 -80 -19 -37
-21 -38 -51 -30 -17 5 -43 17 -56 26 -15 9 -34 13 -49 10 -13 -4 -24 -4 -24
-2 0 10 154 117 351 242 118 75 288 186 378 246 193 129 322 211 326 206 12
-13 418 -1252 470 -1433 58 -203 161 -608 196 -768 8 -37 17 -57 26 -57 18 0
20 -10 -67 345 -105 424 -182 685 -397 1325 -108 322 -198 590 -200 596 -4 11
190 78 209 72 25 -9 434 -1331 639 -2070 46 -168 79 -268 87 -268 17 0 15 12
-13 109 -34 114 -33 116 20 128 l44 10 27 -114 c23 -97 25 -116 13 -124 -10
-6 -7 -9 14 -9 32 0 32 0 7 112 -39 177 -30 163 -110 177 -49 9 -71 18 -74 29
-3 10 -48 166 -100 347 -115 399 -344 1156 -373 1232 -2 6 12 29 31 51 l36 40
-41 118 c-48 138 -54 147 -79 134 -43 -23 -55 -13 -80 65 -13 41 -26 75 -29
75 -3 -1 -62 -19 -131 -41z m290 -236 c19 -56 32 -104 29 -107 -3 -3 -16 -7
-29 -8 -21 -3 -26 6 -58 101 -28 84 -32 105 -21 112 31 20 44 3 79 -98z m10
-158 c-7 -9 -15 -13 -17 -11 -7 7 7 26 19 26 6 0 6 -6 -2 -15z m-1075 -334
c108 -50 159 -159 141 -305 -4 -31 -12 -56 -18 -56 -5 0 -23 9 -38 20 -25 18
-28 26 -28 74 1 77 -17 120 -69 165 -52 47 -74 47 -160 1 l-53 -28 0 24 c0 95
123 152 225 105z m-341 -72 l25 -12 -22 -17 c-14 -12 -21 -29 -21 -53 l0 -35
-28 14 c-36 19 -52 49 -39 72 7 12 10 13 11 3 0 -11 5 -10 20 4 16 14 17 20 8
27 -20 12 17 10 46 -3z m-94 -9 c0 -5 -5 -10 -11 -10 -5 0 -7 5 -4 10 3 6 8
10 11 10 2 0 4 -4 4 -10z m420 -38 c39 -38 60 -91 60 -149 0 -20 -5 -33 -12
-33 -9 0 -13 18 -13 58 0 69 -27 114 -80 133 -39 15 -46 29 -14 29 12 0 38
-17 59 -38z m-242 6 c14 -14 16 -32 3 -23 -14 8 -43 -25 -37 -41 3 -8 9 -21
12 -29 4 -10 0 -15 -14 -15 -24 0 -52 35 -52 64 0 43 59 73 88 44z m229 -42
c27 -29 33 -44 33 -81 0 -25 -3 -45 -7 -45 -4 0 -38 22 -77 48 -39 27 -86 54
-103 61 -18 8 -33 17 -33 22 0 20 56 39 104 35 42 -3 55 -9 83 -40z m-167 -40
c0 -6 -4 -17 -9 -25 -7 -10 -16 -7 -41 16 -42 38 -33 59 15 36 19 -9 35 -21
35 -27z m80 -32 c44 -30 46 -32 27 -58 -13 -18 -16 -17 -55 9 -30 20 -42 35
-42 51 0 31 20 31 70 -2z m-35 -65 c33 -20 72 -39 88 -43 39 -9 34 -24 -17
-47 -68 -30 -111 -5 -141 80 -18 53 -19 64 -2 55 6 -4 39 -24 72 -45z m262
-88 c219 -145 359 -285 434 -433 34 -66 34 -68 14 -68 -8 0 -22 15 -31 33 -91
177 -263 336 -576 530 -16 10 -28 22 -28 27 0 26 50 2 187 -89z m-261 -27 c33
-9 96 0 133 19 28 14 32 13 68 -11 21 -14 40 -27 42 -28 9 -7 -35 -47 -65 -60
-75 -32 -198 25 -241 111 l-15 30 26 -27 c15 -15 38 -31 52 -34z m749 -515 c9
-16 25 -39 36 -50 12 -12 18 -23 16 -26 -13 -12 -51 12 -78 50 -31 42 -30 44
8 56 1 1 10 -13 18 -30z m1005 -419 c0 -10 -37 -20 -44 -12 -15 15 -4 29 19
24 14 -2 25 -8 25 -12z"/>
<path d="M10195 1489 c-11 -17 -2 -18 19 -3 17 12 17 14 4 14 -9 0 -20 -5 -23
-11z"/>
<path d="M10417 1448 c-8 -30 -1 -35 12 -9 6 11 7 22 2 25 -5 3 -11 -4 -14
-16z"/>
<path d="M10350 1284 c0 -14 4 -23 10 -19 6 3 10 15 10 26 0 10 -4 19 -10 19
-5 0 -10 -12 -10 -26z"/>
<path d="M13610 2308 c-25 -32 -52 -58 -60 -58 -23 0 -40 -21 -40 -48 0 -24
-41 -87 -72 -110 -10 -7 -18 -24 -18 -37 0 -24 -32 -88 -57 -113 -7 -7 -13
-21 -13 -31 0 -10 -9 -44 -21 -77 -37 -109 -50 -183 -50 -302 0 -230 64 -428
202 -627 66 -96 178 -216 179 -192 0 11 -25 47 -56 80 -213 233 -328 558 -294
830 9 76 54 247 64 247 2 0 37 -14 77 -31 98 -42 209 -80 209 -71 0 4 -46 24
-103 45 -56 21 -120 48 -142 60 -72 40 -39 87 38 56 18 -7 66 -34 107 -59 41
-26 81 -50 88 -54 6 -4 12 -4 12 1 0 18 -170 117 -233 137 -17 6 -17 7 -1 35
16 28 19 29 48 16 55 -23 171 -65 181 -65 20 0 -33 28 -85 45 -85 28 -130 53
-130 74 0 43 69 33 160 -23 30 -19 57 -32 60 -30 8 8 -40 42 -102 71 -61 28
-66 36 -43 66 13 18 15 18 70 -2 31 -12 61 -21 67 -21 21 0 -5 16 -53 34 -51
18 -85 49 -74 65 9 16 62 13 96 -5 17 -8 34 -13 37 -9 8 8 -27 35 -45 35 -19
0 -16 8 18 51 17 21 29 47 27 56 -3 13 -15 3 -48 -39z"/>
<path d="M11390 2283 c0 -15 247 -794 254 -801 3 -3 8 -3 9 -1 5 6 -246 796
-255 805 -5 4 -8 3 -8 -3z"/>
<path d="M3365 2254 c-112 -38 -186 -76 -180 -93 11 -28 93 -146 119 -170 l25
-24 48 23 c52 25 120 50 134 50 5 0 9 -13 9 -29 0 -39 24 -61 64 -61 60 0 88
68 46 110 -26 26 -40 25 -148 -10 -68 -23 -96 -28 -110 -21 -21 11 -54 53 -96
119 l-27 43 43 19 c24 10 55 21 69 25 24 6 26 4 22 -19 -7 -37 38 -80 75 -72
32 8 62 40 62 68 0 24 -44 68 -67 67 -10 -1 -49 -12 -88 -25z m119 -10 c9 -8
16 -24 16 -34 0 -22 -26 -50 -46 -50 -46 0 -73 57 -42 88 17 17 54 15 72 -4z
m-221 -106 c14 -24 44 -64 66 -90 40 -45 41 -47 20 -53 -25 -8 -32 -1 -104
105 -32 46 -41 66 -32 72 20 13 24 10 50 -34z m362 -129 c0 -28 -5 -35 -28
-43 -59 -21 -93 71 -34 93 34 14 62 -9 62 -50z"/>
<path d="M11227 2220 c6 -22 23 -38 23 -21 0 17 -12 41 -20 41 -5 0 -6 -9 -3
-20z"/>
<path d="M11114 2096 l-21 -15 24 -78 c42 -135 42 -135 79 -105 l21 17 -27 95
c-29 99 -40 111 -76 86z m45 -43 c6 -21 17 -59 25 -85 11 -39 11 -49 1 -58
-17 -14 -18 -12 -48 87 -24 79 -23 89 5 92 4 1 12 -16 17 -36z"/>
<path d="M11194 1846 l-21 -15 32 -97 c17 -54 36 -99 42 -101 5 -2 19 4 31 14
l21 18 -28 95 c-28 99 -40 112 -77 86z m63 -96 c19 -66 21 -85 11 -91 -7 -5
-16 -5 -19 -1 -13 15 -50 155 -45 169 12 30 29 5 53 -77z"/>
<path d="M30 1753 c0 -18 2 -33 4 -33 9 0 13 39 5 51 -6 10 -9 4 -9 -18z"/>
<path d="M13632 1709 c-27 -56 -28 -75 -3 -89 30 -16 38 -11 14 8 l-22 17 20
44 c26 60 19 77 -9 20z"/>
<path d="M13510 1640 c0 -5 5 -10 11 -10 5 0 7 5 4 10 -3 6 -8 10 -11 10 -2 0
-4 -4 -4 -10z"/>
<path d="M30 1491 c0 -5 14 -14 30 -21 35 -14 33 -11 18 -45 -8 -18 -18 -25
-30 -22 -52 14 10 -23 293 -173 171 -91 327 -178 346 -194 58 -49 66 -75 72
-236 7 -159 17 -192 71 -224 41 -24 110 -21 150 6 57 39 74 71 78 148 4 57 0
77 -21 124 -56 122 -180 218 -467 361 -96 48 -231 120 -300 160 -134 78 -240
129 -240 116z m325 -177 c61 -34 136 -75 167 -90 l57 -28 -15 -28 c-8 -15 -16
-28 -18 -28 -4 0 -459 241 -464 245 -2 2 4 17 12 34 l16 30 68 -36 c37 -20
117 -64 177 -99z m308 -158 c13 -10 16 -21 11 -40 -3 -14 -10 -29 -15 -32 -7
-4 -61 21 -88 42 -2 2 2 17 9 33 11 26 14 28 38 20 15 -5 35 -16 45 -23z m103
-57 c72 -45 178 -134 209 -175 l27 -35 -35 -43 c-30 -36 -173 -146 -191 -146
-3 0 -6 55 -6 122 0 134 -17 193 -66 225 -26 17 -30 34 -14 64 14 25 17 24 76
-12z m263 -266 c19 -65 14 -75 -66 -155 -99 -96 -114 -104 -141 -75 -19 20
-46 77 -40 82 2 1 30 19 62 40 32 22 82 62 110 91 28 28 54 52 58 53 4 0 12
-16 17 -36z m-8 -177 c-24 -48 -49 -69 -96 -80 -27 -7 -24 -1 39 63 39 39 72
69 74 66 2 -2 -5 -24 -17 -49z"/>
<path d="M11675 1381 c6 -37 11 -48 21 -39 3 3 -2 21 -11 39 l-15 34 5 -34z"/>
<path d="M5623 1329 c-26 -22 -56 -50 -66 -61 -17 -21 -18 -20 -11 20 4 28 2
47 -6 57 -14 16 -50 21 -50 6 0 -5 10 -7 22 -3 20 5 21 3 15 -46 -3 -28 -13
-64 -21 -80 -27 -52 -6 -42 62 30 66 69 66 70 73 43 11 -39 28 -55 60 -55 58
0 92 76 51 113 -32 29 -76 21 -129 -24z m117 11 c26 -26 25 -36 -4 -65 -45
-45 -107 7 -71 61 19 29 48 31 75 4z"/>
<path d="M13618 1279 c-81 -209 -90 -297 -40 -401 34 -72 81 -133 82 -107 0 9
-7 22 -16 30 -36 29 -67 113 -72 189 -5 84 11 156 59 278 16 41 29 81 27 90
-2 8 -19 -28 -40 -79z"/>
<path d="M2350 1248 c-42 -54 -52 -72 -22 -38 29 32 65 80 59 80 -2 0 -19 -19
-37 -42z"/>
<path d="M2235 1133 c-27 -25 -36 -37 -20 -25 28 19 84 73 74 72 -2 -1 -26
-22 -54 -47z"/>
<path d="M2142 1066 c-46 -33 -53 -43 -14 -20 19 10 38 25 44 32 15 17 8 14
-30 -12z"/>
<path d="M2064 1014 c-18 -14 -18 -15 4 -4 12 6 22 13 22 15 0 8 -5 6 -26 -11z"/>
<path d="M10660 1005 c-14 -16 -10 -18 14 -9 9 3 16 10 16 15 0 14 -16 11 -30
-6z"/>
<path d="M2014 984 c-18 -14 -18 -15 4 -4 12 6 22 13 22 15 0 8 -5 6 -26 -11z"/>
<path d="M1878 983 c7 -3 16 -2 19 1 4 3 -2 6 -13 5 -11 0 -14 -3 -6 -6z"/>
<path d="M1828 973 c6 -2 18 -2 25 0 6 3 1 5 -13 5 -14 0 -19 -2 -12 -5z"/>
<path d="M4192 931 c-32 -25 -87 -51 -144 -70 -51 -17 -96 -31 -99 -31 -4 0
-10 11 -13 24 -10 42 -75 46 -96 6 -7 -13 -5 -24 10 -43 20 -26 20 -26 0 -32
-27 -9 -36 -49 -17 -79 11 -16 14 -36 10 -60 -3 -19 -2 -43 3 -53 9 -21 11
-31 20 -96 4 -26 11 -50 15 -53 5 -3 9 -20 9 -38 0 -20 8 -40 19 -50 12 -11
17 -25 14 -37 -4 -12 3 -32 16 -49 11 -16 21 -41 21 -55 0 -14 9 -34 20 -45
14 -14 18 -28 14 -44 -4 -17 0 -30 14 -44 11 -11 22 -33 24 -48 2 -15 8 -29
14 -31 6 -2 9 10 6 30 -3 31 -1 34 39 50 23 9 43 16 45 14 8 -11 35 -70 32
-72 -2 -2 -15 -9 -28 -14 -22 -9 -20 -10 17 -8 24 1 43 2 43 3 0 1 -25 54 -55
118 -101 211 -228 556 -237 640 -4 41 16 43 34 4 14 -32 14 -30 2 16 -4 17 1
24 26 33 24 9 32 9 35 0 51 -149 138 -386 172 -467 69 -162 162 -350 173 -350
5 0 2 16 -7 35 -9 19 -15 36 -12 38 2 2 90 34 194 71 105 38 303 110 440 161
138 52 256 95 264 97 8 2 17 -6 19 -17 2 -11 12 -31 22 -45 l18 -26 -261 -97
c-144 -53 -336 -124 -427 -157 -91 -32 -155 -59 -143 -59 31 -1 573 194 887
319 42 16 80 30 84 30 4 0 15 -18 24 -40 l17 -40 -32 -14 c-18 -7 -193 -66
-391 -132 -197 -65 -350 -120 -340 -122 18 -2 660 209 842 277 l82 30 0 -25
c0 -14 4 -34 10 -44 9 -17 -16 -27 -316 -127 -179 -59 -318 -109 -307 -111 27
-4 656 206 669 224 17 21 3 64 -27 87 -25 18 -26 18 -89 -7 -35 -14 -65 -26
-67 -26 -2 0 -3 11 -3 24 0 14 -10 37 -22 51 l-23 26 -62 -26 c-74 -30 -83
-31 -83 -7 0 9 -9 32 -21 51 -21 34 -25 35 -86 16 -20 -7 -23 -4 -23 22 0 18
-9 38 -23 51 -22 21 -26 22 -60 7 -47 -19 -44 -20 -52 14 -3 16 -15 37 -26 47
-18 16 -24 16 -52 5 -62 -25 -65 -25 -72 7 -12 55 -42 70 -97 47 -14 -5 -18
-2 -18 13 0 11 -9 30 -19 43 -19 24 -20 24 -64 7 l-45 -16 -15 40 c-15 38 -18
40 -49 34 -30 -5 -34 -2 -48 27 -12 26 -20 32 -42 30 -23 -1 -28 2 -28 21 0
36 -25 52 -61 39 -23 -9 -29 -8 -29 2 0 7 -8 23 -19 36 -16 21 -22 22 -45 11
-23 -10 -26 -9 -26 6 0 19 -27 62 -38 62 -4 0 -31 -18 -60 -39z m66 -43 c14
-17 8 -21 -79 -62 -132 -62 -137 -63 -149 -31 -15 39 -14 41 33 55 55 16 130
54 147 75 12 15 14 15 23 -2 5 -10 17 -26 25 -35z m12 24 c0 -15 -2 -15 -10
-2 -13 20 -13 33 0 25 6 -3 10 -14 10 -23z m90 -62 c0 -13 -1 -13 -10 0 -5 8
-10 22 -10 30 0 13 1 13 10 0 5 -8 10 -22 10 -30z m-28 0 l17 -29 -36 -22
c-43 -27 -224 -109 -239 -109 -13 0 -28 46 -19 60 3 5 22 14 43 21 44 14 159
71 187 93 27 21 27 20 47 -14z m-414 -12 c3 -22 -1 -28 -15 -28 -30 0 -57 25
-50 44 5 12 16 16 34 14 22 -2 29 -9 31 -30z m522 -53 c7 -8 -19 -27 -88 -63
-90 -47 -252 -117 -256 -110 -1 2 -7 15 -13 30 -11 26 -10 27 45 49 77 30 180
82 238 119 l48 30 9 -22 c4 -12 12 -27 17 -33z m14 39 c10 -25 -1 -29 -14 -5
-6 12 -7 21 -1 21 5 0 12 -7 15 -16z m-561 -76 c6 -40 -7 -57 -31 -42 -24 16
-27 45 -6 61 26 19 31 17 37 -19z m637 6 c0 -8 -4 -12 -10 -9 -5 3 -10 13 -10
21 0 8 5 12 10 9 6 -3 10 -13 10 -21z m-28 -15 l18 -30 -148 -70 c-129 -62
-235 -109 -246 -109 -2 0 -9 14 -15 31 -11 31 -10 31 42 52 28 12 111 51 182
88 72 37 135 67 140 68 6 0 18 -13 27 -30z m88 -36 c0 -9 7 -25 17 -35 9 -10
14 -20 12 -22 -14 -14 -437 -196 -454 -196 -7 0 -18 13 -23 30 -11 29 -10 30
40 52 29 12 128 59 222 104 94 45 174 83 179 83 4 1 7 -7 7 -16z m40 -20 c0
-20 -16 -8 -23 17 -4 17 -3 19 9 9 8 -6 14 -18 14 -26z m-716 -17 c3 -13 8
-31 11 -38 8 -21 -42 -43 -62 -27 -17 15 -9 58 14 77 24 17 30 15 37 -12z
m833 -72 c-7 -7 -422 -190 -480 -211 -74 -28 -86 -25 -90 21 -2 25 6 30 168
100 94 41 215 94 270 119 l100 45 17 -36 c10 -19 17 -36 15 -38z m13 43 c0
-18 -2 -19 -10 -7 -13 20 -13 43 0 35 6 -3 10 -16 10 -28z m80 -45 c0 -10 7
-28 16 -41 9 -12 12 -26 8 -30 -10 -9 -419 -184 -542 -232 -45 -18 -84 -30
-87 -28 -2 3 -11 21 -19 41 l-15 36 82 33 c45 18 186 79 312 136 127 56 233
103 238 103 4 0 7 -8 7 -18z m40 -31 c0 -21 -16 -2 -24 29 -7 24 -6 24 8 6 9
-11 16 -27 16 -35z m-936 13 c10 -26 7 -32 -25 -43 -36 -12 -49 -7 -49 19 0
34 62 55 74 24z m1046 -39 c0 -9 7 -29 15 -45 l15 -29 -208 -82 c-114 -45
-281 -110 -372 -145 l-165 -63 -13 31 c-7 17 -10 34 -5 39 4 4 49 24 98 43 50
19 209 87 355 150 146 63 268 115 273 115 4 1 7 -6 7 -14z m40 -34 c0 -21 -16
-2 -24 29 -7 24 -6 24 8 6 9 -11 16 -27 16 -35z m-1062 1 c9 -27 7 -30 -26
-45 -26 -12 -39 -13 -49 -5 -21 17 -15 37 20 58 41 26 43 25 55 -8z m1158 -44
c3 -13 13 -31 22 -41 8 -9 13 -19 11 -21 -14 -13 -838 -310 -844 -304 -1 1 -9
17 -18 33 l-15 31 166 62 c92 35 275 108 407 162 132 54 245 99 252 99 6 1 15
-9 19 -21z m44 -27 c-1 -13 -4 -12 -15 3 -8 11 -15 27 -15 35 1 13 4 12 15 -3
8 -11 15 -27 15 -35z m-1172 -6 c19 -41 14 -53 -23 -65 -28 -9 -39 -9 -50 0
-22 18 -18 57 7 74 32 23 53 20 66 -9z m1292 -64 c-1 -13 -4 -12 -15 3 -8 11
-15 27 -15 35 1 13 4 12 15 -3 8 -11 15 -27 15 -35z m-1255 -31 c20 -38 20
-36 -21 -56 -43 -20 -67 -11 -72 28 -3 21 4 28 35 40 21 9 39 16 40 17 1 1 9
-12 18 -29z m1445 -18 c0 -7 -4 -10 -10 -7 -5 3 -10 16 -10 28 0 18 2 19 10 7
5 -8 10 -21 10 -28z m200 -64 c0 -10 -4 -18 -9 -18 -12 0 -31 56 -23 65 9 9
32 -25 32 -47z m-1603 -16 c13 -32 13 -32 -22 -49 -43 -20 -68 -10 -73 30 -2
20 3 29 25 41 39 21 54 16 70 -22z m38 -82 l16 -30 -45 -22 c-38 -18 -47 -19
-61 -8 -25 21 -14 53 25 72 46 23 47 23 65 -12z"/>
<path d="M10605 946 c-27 -41 -45 -114 -45 -183 0 -34 3 -63 8 -63 4 0 7 30 8
68 1 48 8 85 27 132 28 69 29 88 2 46z"/>
<path d="M9134 946 c18 -14 18 -17 2 -41 -9 -14 -36 -37 -59 -52 -23 -15 -44
-28 -46 -30 -2 -2 -2 -6 1 -9 3 -3 33 2 66 10 33 9 74 16 91 16 28 0 30 -2 21
-25 -13 -33 6 -74 38 -82 63 -15 111 41 81 95 -13 24 -21 27 -78 30 -35 2 -84
-1 -108 -6 l-45 -10 32 33 c36 37 39 78 5 83 -19 3 -20 2 -1 -12z m168 -113
c36 -32 17 -83 -32 -83 -51 0 -69 55 -28 84 28 20 37 20 60 -1z"/>
<path d="M1885 925 c-16 -8 -23 -14 -15 -14 8 0 26 6 40 14 32 18 15 18 -25 0z"/>
<path d="M80 900 c0 -5 5 -10 10 -10 6 0 10 5 10 10 0 6 -4 10 -10 10 -5 0
-10 -4 -10 -10z"/>
<path d="M198 793 c6 -2 18 -2 25 0 6 3 1 5 -13 5 -14 0 -19 -2 -12 -5z"/>
<path d="M10883 719 c-73 -21 -110 -117 -87 -226 26 -127 104 -213 191 -213
84 0 133 65 133 175 0 165 -120 298 -237 264z m108 -32 c52 -35 95 -106 108
-179 18 -107 -11 -180 -84 -207 -35 -14 -40 -13 -81 8 -75 40 -126 140 -126
247 -1 36 6 73 16 92 32 61 107 79 167 39z"/>
<path d="M10932 508 c-20 -20 -14 -38 12 -38 25 0 37 15 28 38 -5 15 -24 16
-40 0z m28 -12 c0 -3 -4 -8 -10 -11 -5 -3 -10 -1 -10 4 0 6 5 11 10 11 6 0 10
-2 10 -4z"/>
<path d="M10850 443 c0 -5 5 -15 10 -23 8 -12 10 -11 10 8 0 12 -4 22 -10 22
-5 0 -10 -3 -10 -7z"/>
<path d="M10890 370 c22 -41 111 -65 150 -40 22 14 5 23 -20 10 -29 -15 -72
-4 -100 26 -28 29 -45 32 -30 4z"/>
<path d="M3991 625 c-1 -15 80 -257 85 -252 2 2 -16 62 -40 133 -25 71 -45
125 -45 119z"/>
<path d="M4081 355 c0 -5 6 -21 14 -35 8 -14 14 -20 14 -15 0 6 -6 21 -14 35
-8 14 -14 21 -14 15z"/>
<path d="M11426 307 c-5 -15 -6 -31 -2 -34 11 -11 18 5 14 34 l-4 28 -8 -28z"/>
<path d="M4120 266 c0 -10 90 -186 95 -186 5 0 -82 179 -91 189 -2 2 -4 1 -4
-3z"/>
<path d="M10490 255 c0 -8 4 -15 10 -15 5 0 7 7 4 15 -4 8 -8 15 -10 15 -2 0
-4 -7 -4 -15z"/>
<path d="M11410 217 c0 -45 -31 -127 -65 -172 -19 -25 -31 -45 -25 -45 14 0
57 60 79 111 24 56 37 129 22 129 -6 0 -11 -10 -11 -23z"/>
<path d="M10520 175 c0 -24 46 -175 53 -175 5 0 6 8 3 18 -2 9 -12 46 -22 82
-15 59 -34 99 -34 75z"/>
<path d="M4241 30 c14 -31 19 -36 19 -24 0 6 -7 19 -16 30 -14 18 -14 18 -3
-6z"/>
<path d="M11681 29 c-43 -8 -58 -15 -50 -23 2 -2 32 1 67 7 52 9 65 9 72 -3
11 -18 25 -6 17 15 -7 17 -36 18 -106 4z"/>
</g>
</svg>
